%TF.GenerationSoftware,KiCad,Pcbnew,9.0.3*%
%TF.CreationDate,2025-07-22T22:52:44+10:00*%
%TF.ProjectId,motorMount,6d6f746f-724d-46f7-956e-742e6b696361,rev?*%
%TF.SameCoordinates,Original*%
%TF.FileFunction,Legend,Top*%
%TF.FilePolarity,Positive*%
%FSLAX46Y46*%
G04 Gerber Fmt 4.6, Leading zero omitted, Abs format (unit mm)*
G04 Created by KiCad (PCBNEW 9.0.3) date 2025-07-22 22:52:44*
%MOMM*%
%LPD*%
G01*
G04 APERTURE LIST*
%ADD10C,0.100000*%
%ADD11C,0.150000*%
%ADD12C,0.120000*%
%ADD13C,0.000000*%
G04 APERTURE END LIST*
D10*
X158000000Y-106750000D02*
X158500000Y-105250000D01*
X157000000Y-107250000D02*
X158000000Y-106750000D01*
X158000000Y-107750000D02*
X157000000Y-107250000D01*
X158500000Y-109250000D02*
X158000000Y-107750000D01*
X159000000Y-107750000D02*
X158500000Y-109250000D01*
X160000000Y-107250000D02*
X159000000Y-107750000D01*
X159000000Y-106750000D02*
X160000000Y-107250000D01*
X158500000Y-105250000D02*
X159000000Y-106750000D01*
X161000000Y-108500000D02*
X160500000Y-109000000D01*
X160000000Y-108500000D01*
X160500000Y-108000000D01*
X161000000Y-108500000D01*
G36*
X161000000Y-108500000D02*
G01*
X160500000Y-109000000D01*
X160000000Y-108500000D01*
X160500000Y-108000000D01*
X161000000Y-108500000D01*
G37*
D11*
X148666666Y-102904819D02*
X148666666Y-103619104D01*
X148666666Y-103619104D02*
X148619047Y-103761961D01*
X148619047Y-103761961D02*
X148523809Y-103857200D01*
X148523809Y-103857200D02*
X148380952Y-103904819D01*
X148380952Y-103904819D02*
X148285714Y-103904819D01*
X149666666Y-103904819D02*
X149095238Y-103904819D01*
X149380952Y-103904819D02*
X149380952Y-102904819D01*
X149380952Y-102904819D02*
X149285714Y-103047676D01*
X149285714Y-103047676D02*
X149190476Y-103142914D01*
X149190476Y-103142914D02*
X149095238Y-103190533D01*
X137738095Y-95004819D02*
X137738095Y-94004819D01*
X137738095Y-94481009D02*
X138309523Y-94481009D01*
X138309523Y-95004819D02*
X138309523Y-94004819D01*
X139309523Y-95004819D02*
X138738095Y-95004819D01*
X139023809Y-95004819D02*
X139023809Y-94004819D01*
X139023809Y-94004819D02*
X138928571Y-94147676D01*
X138928571Y-94147676D02*
X138833333Y-94242914D01*
X138833333Y-94242914D02*
X138738095Y-94290533D01*
X157238095Y-91504819D02*
X157238095Y-90504819D01*
X157238095Y-90981009D02*
X157809523Y-90981009D01*
X157809523Y-91504819D02*
X157809523Y-90504819D01*
X158238095Y-90600057D02*
X158285714Y-90552438D01*
X158285714Y-90552438D02*
X158380952Y-90504819D01*
X158380952Y-90504819D02*
X158619047Y-90504819D01*
X158619047Y-90504819D02*
X158714285Y-90552438D01*
X158714285Y-90552438D02*
X158761904Y-90600057D01*
X158761904Y-90600057D02*
X158809523Y-90695295D01*
X158809523Y-90695295D02*
X158809523Y-90790533D01*
X158809523Y-90790533D02*
X158761904Y-90933390D01*
X158761904Y-90933390D02*
X158190476Y-91504819D01*
X158190476Y-91504819D02*
X158809523Y-91504819D01*
D12*
%TO.C,J1*%
X142400000Y-104250000D02*
X142400000Y-105500000D01*
X142690000Y-104540000D02*
X142690000Y-110510000D01*
X142690000Y-110510000D02*
X155310000Y-110510000D01*
X142700000Y-104550000D02*
X142700000Y-105300000D01*
X142700000Y-105300000D02*
X144500000Y-105300000D01*
X142700000Y-106800000D02*
X143450000Y-106800000D01*
X143450000Y-106800000D02*
X143450000Y-109750000D01*
X143450000Y-109750000D02*
X149000000Y-109750000D01*
X143650000Y-104250000D02*
X142400000Y-104250000D01*
X144500000Y-104550000D02*
X142700000Y-104550000D01*
X144500000Y-105300000D02*
X144500000Y-104550000D01*
X146000000Y-104550000D02*
X146000000Y-105300000D01*
X146000000Y-105300000D02*
X152000000Y-105300000D01*
X152000000Y-104550000D02*
X146000000Y-104550000D01*
X152000000Y-105300000D02*
X152000000Y-104550000D01*
X153500000Y-104550000D02*
X153500000Y-105300000D01*
X153500000Y-105300000D02*
X155300000Y-105300000D01*
X154550000Y-106800000D02*
X154550000Y-109750000D01*
X154550000Y-109750000D02*
X149000000Y-109750000D01*
X155300000Y-104550000D02*
X153500000Y-104550000D01*
X155300000Y-105300000D02*
X155300000Y-104550000D01*
X155300000Y-106800000D02*
X154550000Y-106800000D01*
X155310000Y-104540000D02*
X142690000Y-104540000D01*
X155310000Y-110510000D02*
X155310000Y-104540000D01*
D13*
%TO.C,G\u002A\u002A\u002A*%
G36*
X138541313Y-107116705D02*
G01*
X138647900Y-107116800D01*
X138743581Y-107116963D01*
X138828734Y-107117197D01*
X138903741Y-107117505D01*
X138968980Y-107117891D01*
X139024831Y-107118358D01*
X139071676Y-107118909D01*
X139109894Y-107119548D01*
X139139864Y-107120277D01*
X139161968Y-107121101D01*
X139176584Y-107122022D01*
X139184094Y-107123044D01*
X139184905Y-107123316D01*
X139199986Y-107135766D01*
X139210914Y-107155013D01*
X139215487Y-107176351D01*
X139214604Y-107186794D01*
X139207598Y-107201978D01*
X139195337Y-107216833D01*
X139193335Y-107218606D01*
X139175815Y-107233348D01*
X138431005Y-107232978D01*
X138338543Y-107232893D01*
X138249194Y-107232736D01*
X138163664Y-107232510D01*
X138082660Y-107232221D01*
X138006889Y-107231875D01*
X137937058Y-107231476D01*
X137873873Y-107231029D01*
X137818042Y-107230540D01*
X137770270Y-107230013D01*
X137731266Y-107229453D01*
X137701735Y-107228866D01*
X137682384Y-107228256D01*
X137673921Y-107227629D01*
X137673694Y-107227563D01*
X137655882Y-107214750D01*
X137645297Y-107195585D01*
X137642417Y-107173235D01*
X137647722Y-107150865D01*
X137659495Y-107133726D01*
X137676548Y-107116673D01*
X138423438Y-107116673D01*
X138541313Y-107116705D01*
G37*
G36*
X138722169Y-107408370D02*
G01*
X138799856Y-107408447D01*
X138868317Y-107408603D01*
X138928161Y-107408864D01*
X138979999Y-107409256D01*
X139024441Y-107409804D01*
X139062097Y-107410535D01*
X139093577Y-107411474D01*
X139119492Y-107412646D01*
X139140451Y-107414077D01*
X139157066Y-107415793D01*
X139169945Y-107417820D01*
X139179699Y-107420184D01*
X139186939Y-107422909D01*
X139192275Y-107426022D01*
X139196316Y-107429548D01*
X139199673Y-107433514D01*
X139202957Y-107437944D01*
X139205355Y-107441104D01*
X139214959Y-107461307D01*
X139213177Y-107482252D01*
X139200166Y-107502988D01*
X139194134Y-107508991D01*
X139176526Y-107525034D01*
X138431361Y-107524664D01*
X138338877Y-107524579D01*
X138249505Y-107524421D01*
X138163952Y-107524196D01*
X138082925Y-107523908D01*
X138007130Y-107523561D01*
X137937275Y-107523162D01*
X137874065Y-107522716D01*
X137818207Y-107522226D01*
X137770408Y-107521700D01*
X137731374Y-107521140D01*
X137701812Y-107520553D01*
X137682428Y-107519944D01*
X137673930Y-107519317D01*
X137673694Y-107519249D01*
X137656798Y-107506926D01*
X137646102Y-107488289D01*
X137642363Y-107466929D01*
X137646337Y-107446441D01*
X137655569Y-107433100D01*
X137671172Y-107421657D01*
X137685117Y-107414582D01*
X137692797Y-107413539D01*
X137710186Y-107412597D01*
X137737468Y-107411754D01*
X137774824Y-107411008D01*
X137822435Y-107410358D01*
X137880484Y-107409802D01*
X137949152Y-107409339D01*
X138028622Y-107408967D01*
X138119074Y-107408685D01*
X138220691Y-107408491D01*
X138333654Y-107408384D01*
X138427645Y-107408359D01*
X138536673Y-107408352D01*
X138634645Y-107408347D01*
X138722169Y-107408370D01*
G37*
G36*
X138541313Y-106825019D02*
G01*
X138647900Y-106825114D01*
X138743581Y-106825277D01*
X138828734Y-106825511D01*
X138903741Y-106825820D01*
X138968980Y-106826205D01*
X139024831Y-106826672D01*
X139071676Y-106827223D01*
X139109894Y-106827862D01*
X139139864Y-106828591D01*
X139161968Y-106829415D01*
X139176584Y-106830336D01*
X139184094Y-106831358D01*
X139184905Y-106831630D01*
X139197746Y-106842199D01*
X139209333Y-106859172D01*
X139216550Y-106877431D01*
X139217546Y-106885217D01*
X139212761Y-106898608D01*
X139200576Y-106913557D01*
X139184249Y-106926872D01*
X139167036Y-106935361D01*
X139166126Y-106935625D01*
X139156488Y-106936639D01*
X139135270Y-106937560D01*
X139102561Y-106938385D01*
X139058448Y-106939116D01*
X139003019Y-106939750D01*
X138936361Y-106940288D01*
X138858564Y-106940728D01*
X138769713Y-106941071D01*
X138669898Y-106941314D01*
X138559205Y-106941459D01*
X138437724Y-106941503D01*
X138424161Y-106941501D01*
X138317447Y-106941482D01*
X138221774Y-106941448D01*
X138136515Y-106941390D01*
X138061044Y-106941298D01*
X137994735Y-106941163D01*
X137936961Y-106940976D01*
X137887096Y-106940728D01*
X137844514Y-106940408D01*
X137808586Y-106940008D01*
X137778689Y-106939518D01*
X137754194Y-106938929D01*
X137734476Y-106938231D01*
X137718907Y-106937416D01*
X137706863Y-106936473D01*
X137697715Y-106935394D01*
X137690838Y-106934168D01*
X137685605Y-106932788D01*
X137681390Y-106931242D01*
X137679374Y-106930362D01*
X137656861Y-106915304D01*
X137644226Y-106896181D01*
X137641893Y-106874872D01*
X137650283Y-106853254D01*
X137659495Y-106842040D01*
X137676548Y-106824988D01*
X138423438Y-106824988D01*
X138541313Y-106825019D01*
G37*
G36*
X137451656Y-108461663D02*
G01*
X137471634Y-108463073D01*
X137487272Y-108466256D01*
X137502229Y-108471896D01*
X137516013Y-108478557D01*
X137549430Y-108500282D01*
X137580867Y-108529430D01*
X137607210Y-108562633D01*
X137625342Y-108596526D01*
X137625441Y-108596777D01*
X137636063Y-108637413D01*
X137639054Y-108682159D01*
X137634414Y-108726359D01*
X137625524Y-108757387D01*
X137605537Y-108794639D01*
X137576752Y-108829309D01*
X137542028Y-108858347D01*
X137517149Y-108872993D01*
X137474462Y-108888247D01*
X137428486Y-108894642D01*
X137382977Y-108891893D01*
X137356060Y-108885276D01*
X137309541Y-108863954D01*
X137269985Y-108833547D01*
X137238333Y-108794962D01*
X137216235Y-108751004D01*
X137209840Y-108731388D01*
X137206412Y-108712367D01*
X137205434Y-108689609D01*
X137206083Y-108665525D01*
X137206149Y-108664471D01*
X137322806Y-108664471D01*
X137323464Y-108696237D01*
X137329587Y-108716758D01*
X137346749Y-108743265D01*
X137371094Y-108762517D01*
X137400103Y-108773738D01*
X137431259Y-108776155D01*
X137462044Y-108768993D01*
X137476135Y-108761811D01*
X137498943Y-108741142D01*
X137513590Y-108713336D01*
X137519147Y-108680407D01*
X137518846Y-108669002D01*
X137511955Y-108635023D01*
X137496531Y-108608801D01*
X137472188Y-108589740D01*
X137465092Y-108586218D01*
X137432298Y-108576517D01*
X137400693Y-108578213D01*
X137373859Y-108588536D01*
X137348945Y-108607892D01*
X137331613Y-108634113D01*
X137322806Y-108664471D01*
X137206149Y-108664471D01*
X137207793Y-108638081D01*
X137210817Y-108617904D01*
X137216233Y-108600597D01*
X137225119Y-108581761D01*
X137227874Y-108576549D01*
X137256960Y-108534066D01*
X137294099Y-108499580D01*
X137332234Y-108476865D01*
X137349545Y-108469446D01*
X137365442Y-108464822D01*
X137383652Y-108462362D01*
X137407901Y-108461433D01*
X137423679Y-108461345D01*
X137451656Y-108461663D01*
G37*
G36*
X138122534Y-108461663D02*
G01*
X138142511Y-108463073D01*
X138158149Y-108466256D01*
X138173107Y-108471896D01*
X138186891Y-108478557D01*
X138220307Y-108500282D01*
X138251745Y-108529430D01*
X138278088Y-108562633D01*
X138296220Y-108596526D01*
X138296318Y-108596777D01*
X138306940Y-108637413D01*
X138309932Y-108682159D01*
X138305291Y-108726359D01*
X138296401Y-108757387D01*
X138276415Y-108794639D01*
X138247630Y-108829309D01*
X138212906Y-108858347D01*
X138188027Y-108872993D01*
X138145340Y-108888247D01*
X138099363Y-108894642D01*
X138053855Y-108891893D01*
X138026937Y-108885276D01*
X137980419Y-108863954D01*
X137940862Y-108833547D01*
X137909210Y-108794962D01*
X137887112Y-108751004D01*
X137880718Y-108731388D01*
X137877289Y-108712367D01*
X137876312Y-108689609D01*
X137876961Y-108665525D01*
X137877027Y-108664471D01*
X137993683Y-108664471D01*
X137994341Y-108696237D01*
X138000465Y-108716758D01*
X138017626Y-108743265D01*
X138041971Y-108762517D01*
X138070980Y-108773738D01*
X138102137Y-108776155D01*
X138132921Y-108768993D01*
X138147012Y-108761811D01*
X138169821Y-108741142D01*
X138184467Y-108713336D01*
X138190024Y-108680407D01*
X138189723Y-108669002D01*
X138182833Y-108635023D01*
X138167409Y-108608801D01*
X138143065Y-108589740D01*
X138135969Y-108586218D01*
X138103175Y-108576517D01*
X138071570Y-108578213D01*
X138044736Y-108588536D01*
X138019822Y-108607892D01*
X138002491Y-108634113D01*
X137993683Y-108664471D01*
X137877027Y-108664471D01*
X137878670Y-108638081D01*
X137881694Y-108617904D01*
X137887111Y-108600597D01*
X137895996Y-108581761D01*
X137898751Y-108576549D01*
X137927838Y-108534066D01*
X137964977Y-108499580D01*
X138003112Y-108476865D01*
X138020422Y-108469446D01*
X138036319Y-108464822D01*
X138054529Y-108462362D01*
X138078778Y-108461433D01*
X138094556Y-108461345D01*
X138122534Y-108461663D01*
G37*
G36*
X138793411Y-108461663D02*
G01*
X138813389Y-108463073D01*
X138829026Y-108466256D01*
X138843984Y-108471896D01*
X138857768Y-108478557D01*
X138891184Y-108500282D01*
X138922622Y-108529430D01*
X138948965Y-108562633D01*
X138967097Y-108596526D01*
X138967195Y-108596777D01*
X138977817Y-108637413D01*
X138980809Y-108682159D01*
X138976168Y-108726359D01*
X138967278Y-108757387D01*
X138947292Y-108794639D01*
X138918507Y-108829309D01*
X138883783Y-108858347D01*
X138858904Y-108872993D01*
X138816217Y-108888247D01*
X138770240Y-108894642D01*
X138724732Y-108891893D01*
X138697814Y-108885276D01*
X138651296Y-108863954D01*
X138611740Y-108833547D01*
X138580087Y-108794962D01*
X138557989Y-108751004D01*
X138551595Y-108731388D01*
X138548166Y-108712367D01*
X138547189Y-108689609D01*
X138547838Y-108665525D01*
X138547904Y-108664471D01*
X138664560Y-108664471D01*
X138665219Y-108696237D01*
X138671342Y-108716758D01*
X138688504Y-108743265D01*
X138712848Y-108762517D01*
X138741858Y-108773738D01*
X138773014Y-108776155D01*
X138803799Y-108768993D01*
X138817890Y-108761811D01*
X138840698Y-108741142D01*
X138855345Y-108713336D01*
X138860902Y-108680407D01*
X138860601Y-108669002D01*
X138853710Y-108635023D01*
X138838286Y-108608801D01*
X138813942Y-108589740D01*
X138806846Y-108586218D01*
X138774053Y-108576517D01*
X138742447Y-108578213D01*
X138715613Y-108588536D01*
X138690700Y-108607892D01*
X138673368Y-108634113D01*
X138664560Y-108664471D01*
X138547904Y-108664471D01*
X138549547Y-108638081D01*
X138552572Y-108617904D01*
X138557988Y-108600597D01*
X138566874Y-108581761D01*
X138569629Y-108576549D01*
X138598715Y-108534066D01*
X138635854Y-108499580D01*
X138673989Y-108476865D01*
X138691299Y-108469446D01*
X138707197Y-108464822D01*
X138725407Y-108462362D01*
X138749656Y-108461433D01*
X138765433Y-108461345D01*
X138793411Y-108461663D01*
G37*
G36*
X139464288Y-108461663D02*
G01*
X139484266Y-108463073D01*
X139499904Y-108466256D01*
X139514861Y-108471896D01*
X139528645Y-108478557D01*
X139562062Y-108500282D01*
X139593499Y-108529430D01*
X139619842Y-108562633D01*
X139637974Y-108596526D01*
X139638073Y-108596777D01*
X139648695Y-108637413D01*
X139651686Y-108682159D01*
X139647046Y-108726359D01*
X139638156Y-108757387D01*
X139618169Y-108794639D01*
X139589385Y-108829309D01*
X139554660Y-108858347D01*
X139529781Y-108872993D01*
X139487094Y-108888247D01*
X139441118Y-108894642D01*
X139395609Y-108891893D01*
X139368692Y-108885276D01*
X139322173Y-108863954D01*
X139282617Y-108833547D01*
X139250965Y-108794962D01*
X139228867Y-108751004D01*
X139222472Y-108731388D01*
X139219044Y-108712367D01*
X139218066Y-108689609D01*
X139218716Y-108665525D01*
X139218782Y-108664471D01*
X139335438Y-108664471D01*
X139336096Y-108696237D01*
X139342219Y-108716758D01*
X139359381Y-108743265D01*
X139383726Y-108762517D01*
X139412735Y-108773738D01*
X139443891Y-108776155D01*
X139474676Y-108768993D01*
X139488767Y-108761811D01*
X139511575Y-108741142D01*
X139526222Y-108713336D01*
X139531779Y-108680407D01*
X139531478Y-108669002D01*
X139524587Y-108635023D01*
X139509163Y-108608801D01*
X139484820Y-108589740D01*
X139477724Y-108586218D01*
X139444930Y-108576517D01*
X139413325Y-108578213D01*
X139386491Y-108588536D01*
X139361577Y-108607892D01*
X139344245Y-108634113D01*
X139335438Y-108664471D01*
X139218782Y-108664471D01*
X139220425Y-108638081D01*
X139223449Y-108617904D01*
X139228865Y-108600597D01*
X139237751Y-108581761D01*
X139240506Y-108576549D01*
X139269592Y-108534066D01*
X139306732Y-108499580D01*
X139344866Y-108476865D01*
X139362177Y-108469446D01*
X139378074Y-108464822D01*
X139396284Y-108462362D01*
X139420533Y-108461433D01*
X139436311Y-108461345D01*
X139464288Y-108461663D01*
G37*
G36*
X138831542Y-105281747D02*
G01*
X138878153Y-105294137D01*
X138921428Y-105315360D01*
X138960068Y-105344745D01*
X138992778Y-105381621D01*
X139018261Y-105425314D01*
X139035220Y-105475155D01*
X139037725Y-105487133D01*
X139040994Y-105535554D01*
X139033641Y-105584541D01*
X139016368Y-105631841D01*
X138989876Y-105675203D01*
X138972909Y-105695218D01*
X138932336Y-105730037D01*
X138886495Y-105755063D01*
X138836935Y-105769851D01*
X138785207Y-105773956D01*
X138732859Y-105766934D01*
X138727514Y-105765566D01*
X138679008Y-105746698D01*
X138635926Y-105717904D01*
X138599308Y-105680075D01*
X138570194Y-105634097D01*
X138567731Y-105629076D01*
X138559807Y-105611753D01*
X138554599Y-105597184D01*
X138551541Y-105582094D01*
X138550066Y-105563206D01*
X138549610Y-105537246D01*
X138549609Y-105536602D01*
X138664282Y-105536602D01*
X138671085Y-105569468D01*
X138685798Y-105598838D01*
X138707179Y-105623468D01*
X138733984Y-105642116D01*
X138764969Y-105653540D01*
X138798889Y-105656499D01*
X138834502Y-105649749D01*
X138855244Y-105640998D01*
X138885344Y-105620453D01*
X138905735Y-105594281D01*
X138916850Y-105561665D01*
X138919122Y-105521788D01*
X138919068Y-105520660D01*
X138917021Y-105495781D01*
X138913017Y-105477949D01*
X138905723Y-105462564D01*
X138899478Y-105452974D01*
X138874303Y-105425731D01*
X138844200Y-105407520D01*
X138811176Y-105398228D01*
X138777237Y-105397741D01*
X138744388Y-105405949D01*
X138714637Y-105422736D01*
X138689988Y-105447992D01*
X138679386Y-105465348D01*
X138666635Y-105501481D01*
X138664282Y-105536602D01*
X138549609Y-105536602D01*
X138549586Y-105524069D01*
X138549813Y-105494151D01*
X138550839Y-105472737D01*
X138553180Y-105456666D01*
X138557355Y-105442777D01*
X138563879Y-105427911D01*
X138566046Y-105423451D01*
X138594900Y-105377557D01*
X138632456Y-105338596D01*
X138677093Y-105308192D01*
X138684657Y-105304294D01*
X138733497Y-105286154D01*
X138782891Y-105278862D01*
X138831542Y-105281747D01*
G37*
G36*
X138102328Y-105281747D02*
G01*
X138148939Y-105294137D01*
X138192213Y-105315360D01*
X138230854Y-105344745D01*
X138263564Y-105381621D01*
X138289047Y-105425314D01*
X138306005Y-105475155D01*
X138308511Y-105487133D01*
X138311779Y-105535554D01*
X138304426Y-105584541D01*
X138287153Y-105631841D01*
X138260662Y-105675203D01*
X138243694Y-105695218D01*
X138203121Y-105730037D01*
X138157280Y-105755063D01*
X138107721Y-105769851D01*
X138055992Y-105773956D01*
X138003644Y-105766934D01*
X137998300Y-105765566D01*
X137949793Y-105746698D01*
X137906711Y-105717904D01*
X137870094Y-105680075D01*
X137840979Y-105634097D01*
X137838516Y-105629076D01*
X137830592Y-105611753D01*
X137825384Y-105597184D01*
X137822326Y-105582094D01*
X137820852Y-105563206D01*
X137820431Y-105539222D01*
X137934582Y-105539222D01*
X137943291Y-105574443D01*
X137962728Y-105606502D01*
X137980521Y-105624569D01*
X138013072Y-105645449D01*
X138048317Y-105655149D01*
X138085306Y-105653574D01*
X138123088Y-105640627D01*
X138125815Y-105639253D01*
X138144806Y-105626252D01*
X138163229Y-105608631D01*
X138169568Y-105600792D01*
X138178702Y-105587242D01*
X138184167Y-105575311D01*
X138186895Y-105561240D01*
X138187819Y-105541271D01*
X138187895Y-105526914D01*
X138187520Y-105502056D01*
X138185791Y-105485061D01*
X138181808Y-105472133D01*
X138174669Y-105459478D01*
X138170358Y-105453108D01*
X138145964Y-105427486D01*
X138120772Y-105411304D01*
X138100043Y-105401697D01*
X138082966Y-105397355D01*
X138063510Y-105397034D01*
X138054635Y-105397674D01*
X138015876Y-105405990D01*
X137983897Y-105423776D01*
X137958814Y-105450955D01*
X137950429Y-105465030D01*
X137936871Y-105502273D01*
X137934582Y-105539222D01*
X137820431Y-105539222D01*
X137820396Y-105537246D01*
X137820371Y-105524069D01*
X137820598Y-105494151D01*
X137821624Y-105472737D01*
X137823966Y-105456666D01*
X137828140Y-105442777D01*
X137834664Y-105427911D01*
X137836831Y-105423451D01*
X137865686Y-105377557D01*
X137903241Y-105338596D01*
X137947879Y-105308192D01*
X137955442Y-105304294D01*
X138004283Y-105286154D01*
X138053677Y-105278862D01*
X138102328Y-105281747D01*
G37*
G36*
X140729316Y-104818426D02*
G01*
X140747547Y-104833694D01*
X140754892Y-104845604D01*
X140757598Y-104852571D01*
X140759701Y-104861612D01*
X140761251Y-104874064D01*
X140762298Y-104891260D01*
X140762891Y-104914536D01*
X140763082Y-104945225D01*
X140762919Y-104984662D01*
X140762452Y-105034181D01*
X140762336Y-105044601D01*
X140761745Y-105095017D01*
X140761159Y-105135299D01*
X140760454Y-105166980D01*
X140759505Y-105191593D01*
X140758187Y-105210670D01*
X140756375Y-105225746D01*
X140753946Y-105238352D01*
X140750775Y-105250021D01*
X140746737Y-105262287D01*
X140744019Y-105270080D01*
X140718343Y-105327260D01*
X140683966Y-105378787D01*
X140642162Y-105423458D01*
X140594204Y-105460071D01*
X140541363Y-105487423D01*
X140499505Y-105501084D01*
X140471795Y-105507953D01*
X140471795Y-105789683D01*
X140471795Y-106071413D01*
X140495657Y-106075444D01*
X140535495Y-106087070D01*
X140577160Y-106107851D01*
X140618439Y-106135999D01*
X140657115Y-106169725D01*
X140690975Y-106207240D01*
X140717802Y-106246755D01*
X140725156Y-106260799D01*
X140747591Y-106319572D01*
X140759141Y-106378361D01*
X140760522Y-106436251D01*
X140752452Y-106492325D01*
X140735647Y-106545666D01*
X140710825Y-106595357D01*
X140678701Y-106640483D01*
X140639994Y-106680125D01*
X140595420Y-106713368D01*
X140545696Y-106739294D01*
X140491540Y-106756988D01*
X140433667Y-106765532D01*
X140372796Y-106764010D01*
X140336191Y-106758110D01*
X140292665Y-106744686D01*
X140247782Y-106723462D01*
X140204617Y-106696421D01*
X140166242Y-106665544D01*
X140135729Y-106632816D01*
X140130070Y-106625125D01*
X140118855Y-106609024D01*
X139917592Y-106701444D01*
X139716329Y-106793864D01*
X139713105Y-107029649D01*
X139712242Y-107089547D01*
X139711395Y-107139140D01*
X139710489Y-107179791D01*
X139709451Y-107212860D01*
X139708206Y-107239710D01*
X139706679Y-107261703D01*
X139704797Y-107280202D01*
X139702484Y-107296567D01*
X139699667Y-107312162D01*
X139696971Y-107325134D01*
X139671353Y-107417264D01*
X139635826Y-107503880D01*
X139590955Y-107584382D01*
X139537303Y-107658168D01*
X139475435Y-107724636D01*
X139405918Y-107783185D01*
X139329314Y-107833214D01*
X139246188Y-107874121D01*
X139157107Y-107905305D01*
X139150459Y-107907164D01*
X139103789Y-107920000D01*
X139103789Y-108071082D01*
X139103789Y-108222163D01*
X139372140Y-108225270D01*
X139435199Y-108226017D01*
X139487741Y-108226706D01*
X139530917Y-108227401D01*
X139565877Y-108228163D01*
X139593771Y-108229055D01*
X139615750Y-108230138D01*
X139632963Y-108231475D01*
X139646562Y-108233128D01*
X139657695Y-108235160D01*
X139667515Y-108237631D01*
X139677170Y-108240606D01*
X139681327Y-108241977D01*
X139751689Y-108271108D01*
X139814449Y-108308919D01*
X139869218Y-108355009D01*
X139915609Y-108408976D01*
X139953236Y-108470418D01*
X139981711Y-108538932D01*
X139988469Y-108561013D01*
X139997295Y-108605113D01*
X140001483Y-108655535D01*
X140001027Y-108707890D01*
X139995920Y-108757790D01*
X139988823Y-108791741D01*
X139964489Y-108859990D01*
X139930511Y-108922361D01*
X139887744Y-108978061D01*
X139837045Y-109026299D01*
X139779269Y-109066284D01*
X139715273Y-109097225D01*
X139645911Y-109118330D01*
X139632685Y-109121069D01*
X139621152Y-109122154D01*
X139598671Y-109123167D01*
X139565929Y-109124107D01*
X139523614Y-109124975D01*
X139472413Y-109125771D01*
X139413014Y-109126496D01*
X139346105Y-109127151D01*
X139272373Y-109127735D01*
X139192506Y-109128249D01*
X139107192Y-109128694D01*
X139017117Y-109129069D01*
X138922970Y-109129376D01*
X138825439Y-109129614D01*
X138725210Y-109129785D01*
X138622972Y-109129888D01*
X138519412Y-109129923D01*
X138415218Y-109129892D01*
X138311076Y-109129795D01*
X138207676Y-109129631D01*
X138105705Y-109129402D01*
X138005849Y-109129108D01*
X137908797Y-109128749D01*
X137815237Y-109128326D01*
X137725855Y-109127839D01*
X137641340Y-109127288D01*
X137562380Y-109126674D01*
X137489661Y-109125998D01*
X137423871Y-109125258D01*
X137365698Y-109124457D01*
X137315830Y-109123595D01*
X137274954Y-109122671D01*
X137243757Y-109121687D01*
X137222928Y-109120642D01*
X137213665Y-109119661D01*
X137150558Y-109101808D01*
X137093183Y-109075843D01*
X137039249Y-109040536D01*
X136993580Y-109001488D01*
X136944733Y-108947782D01*
X136906005Y-108888480D01*
X136876889Y-108822802D01*
X136876342Y-108821250D01*
X136868578Y-108797683D01*
X136863247Y-108776947D01*
X136859778Y-108755457D01*
X136857599Y-108729627D01*
X136856139Y-108695872D01*
X136856083Y-108694159D01*
X136855325Y-108659951D01*
X136971976Y-108659951D01*
X136974641Y-108720030D01*
X136987852Y-108778498D01*
X137011140Y-108833693D01*
X137044037Y-108883950D01*
X137068004Y-108910855D01*
X137115008Y-108950684D01*
X137166695Y-108980226D01*
X137224302Y-109000114D01*
X137254938Y-109006505D01*
X137263573Y-109006986D01*
X137283305Y-109007445D01*
X137313561Y-109007881D01*
X137353770Y-109008293D01*
X137403362Y-109008677D01*
X137461765Y-109009032D01*
X137528407Y-109009357D01*
X137602717Y-109009649D01*
X137684125Y-109009906D01*
X137772058Y-109010126D01*
X137865946Y-109010308D01*
X137965217Y-109010449D01*
X138069299Y-109010548D01*
X138177622Y-109010602D01*
X138289614Y-109010610D01*
X138404704Y-109010570D01*
X138447496Y-109010543D01*
X138584691Y-109010442D01*
X138710709Y-109010340D01*
X138826039Y-109010231D01*
X138931169Y-109010112D01*
X139026590Y-109009977D01*
X139112791Y-109009821D01*
X139190261Y-109009641D01*
X139259490Y-109009430D01*
X139320967Y-109009185D01*
X139375183Y-109008901D01*
X139422625Y-109008572D01*
X139463785Y-109008194D01*
X139499151Y-109007763D01*
X139529212Y-109007274D01*
X139554459Y-109006721D01*
X139575381Y-109006101D01*
X139592467Y-109005408D01*
X139606206Y-109004637D01*
X139617089Y-109003785D01*
X139625604Y-109002846D01*
X139632242Y-109001815D01*
X139637491Y-109000687D01*
X139641841Y-108999459D01*
X139643408Y-108998949D01*
X139700443Y-108974776D01*
X139750810Y-108942219D01*
X139786798Y-108910389D01*
X139826362Y-108864298D01*
X139855068Y-108815007D01*
X139873394Y-108761356D01*
X139881817Y-108702185D01*
X139882521Y-108678035D01*
X139878487Y-108618488D01*
X139865689Y-108565238D01*
X139843336Y-108516384D01*
X139810636Y-108470025D01*
X139783613Y-108440486D01*
X139743287Y-108404551D01*
X139702379Y-108378195D01*
X139657704Y-108359627D01*
X139624204Y-108350678D01*
X139618407Y-108349583D01*
X139611056Y-108348580D01*
X139601667Y-108347665D01*
X139589757Y-108346837D01*
X139574839Y-108346091D01*
X139556430Y-108345425D01*
X139534046Y-108344836D01*
X139507201Y-108344320D01*
X139475412Y-108343875D01*
X139438195Y-108343498D01*
X139395063Y-108343186D01*
X139345534Y-108342935D01*
X139289122Y-108342743D01*
X139225344Y-108342606D01*
X139153715Y-108342522D01*
X139073750Y-108342488D01*
X138984964Y-108342500D01*
X138886875Y-108342556D01*
X138778996Y-108342653D01*
X138660844Y-108342787D01*
X138531934Y-108342956D01*
X138409577Y-108343130D01*
X138271476Y-108343337D01*
X138144560Y-108343541D01*
X138028345Y-108343745D01*
X137922350Y-108343954D01*
X137826090Y-108344174D01*
X137739084Y-108344408D01*
X137660849Y-108344662D01*
X137590901Y-108344940D01*
X137528757Y-108345247D01*
X137473936Y-108345587D01*
X137425954Y-108345966D01*
X137384329Y-108346388D01*
X137348577Y-108346857D01*
X137318215Y-108347378D01*
X137292762Y-108347957D01*
X137271733Y-108348597D01*
X137254647Y-108349303D01*
X137241020Y-108350080D01*
X137230369Y-108350933D01*
X137222212Y-108351867D01*
X137216067Y-108352885D01*
X137211449Y-108353993D01*
X137209018Y-108354771D01*
X137149692Y-108381407D01*
X137097490Y-108416329D01*
X137053213Y-108458676D01*
X137017664Y-108507587D01*
X136991647Y-108562202D01*
X136980327Y-108599927D01*
X136971976Y-108659951D01*
X136855325Y-108659951D01*
X136855302Y-108658905D01*
X136855785Y-108631661D01*
X136857813Y-108608811D01*
X136861671Y-108586739D01*
X136865881Y-108568734D01*
X136888658Y-108500916D01*
X136921227Y-108438353D01*
X136962639Y-108381987D01*
X137011949Y-108332760D01*
X137068210Y-108291614D01*
X137130476Y-108259492D01*
X137197799Y-108237336D01*
X137199080Y-108237027D01*
X137211858Y-108234135D01*
X137224587Y-108231753D01*
X137238513Y-108229830D01*
X137254878Y-108228318D01*
X137274928Y-108227168D01*
X137299906Y-108226331D01*
X137331057Y-108225758D01*
X137369625Y-108225399D01*
X137416854Y-108225206D01*
X137467222Y-108225139D01*
X137875792Y-108225139D01*
X138428536Y-108223651D01*
X138981281Y-108222163D01*
X138982841Y-108077778D01*
X138984401Y-107933394D01*
X138430096Y-107933394D01*
X137875792Y-107933394D01*
X137875792Y-108079266D01*
X137875792Y-108225139D01*
X137467222Y-108225139D01*
X137473988Y-108225130D01*
X137500975Y-108225120D01*
X137753284Y-108225080D01*
X137753284Y-108079266D01*
X137753284Y-108070486D01*
X137753251Y-108024053D01*
X137753092Y-107987981D01*
X137752708Y-107960966D01*
X137752005Y-107941700D01*
X137750887Y-107928878D01*
X137749258Y-107921194D01*
X137747023Y-107917343D01*
X137744085Y-107916018D01*
X137741951Y-107915893D01*
X137727663Y-107913647D01*
X137705219Y-107907508D01*
X137677103Y-107898373D01*
X137645797Y-107887140D01*
X137613784Y-107874705D01*
X137583547Y-107861966D01*
X137557570Y-107849820D01*
X137553810Y-107847907D01*
X137473279Y-107799918D01*
X137400372Y-107743248D01*
X137335434Y-107678331D01*
X137278810Y-107605605D01*
X137230843Y-107525505D01*
X137191879Y-107438467D01*
X137165277Y-107356352D01*
X137161620Y-107342596D01*
X137158589Y-107329987D01*
X137156107Y-107317269D01*
X137154100Y-107303186D01*
X137152493Y-107286479D01*
X137151212Y-107265893D01*
X137150181Y-107240171D01*
X137149325Y-107208055D01*
X137148570Y-107168290D01*
X137147841Y-107119619D01*
X137147063Y-107060784D01*
X137146898Y-107047936D01*
X137145301Y-106923382D01*
X137262410Y-106923382D01*
X137262542Y-106976078D01*
X137263042Y-107028042D01*
X137263911Y-107077726D01*
X137265147Y-107123581D01*
X137266749Y-107164058D01*
X137268717Y-107197607D01*
X137271048Y-107222680D01*
X137272275Y-107231125D01*
X137293200Y-107320266D01*
X137323939Y-107403203D01*
X137364704Y-107480365D01*
X137415709Y-107552183D01*
X137454025Y-107595749D01*
X137520757Y-107657668D01*
X137593702Y-107709811D01*
X137672315Y-107751916D01*
X137756052Y-107783717D01*
X137844368Y-107804952D01*
X137902043Y-107812779D01*
X137911223Y-107813100D01*
X137931203Y-107813387D01*
X137961116Y-107813636D01*
X138000094Y-107813846D01*
X138047269Y-107814014D01*
X138101775Y-107814140D01*
X138162744Y-107814221D01*
X138229309Y-107814254D01*
X138300601Y-107814239D01*
X138375755Y-107814173D01*
X138453902Y-107814053D01*
X138456246Y-107814049D01*
X138548131Y-107813860D01*
X138629101Y-107813650D01*
X138699909Y-107813405D01*
X138761308Y-107813109D01*
X138814052Y-107812750D01*
X138858893Y-107812311D01*
X138896584Y-107811781D01*
X138927878Y-107811144D01*
X138953527Y-107810386D01*
X138974286Y-107809493D01*
X138990905Y-107808451D01*
X139004140Y-107807245D01*
X139014742Y-107805862D01*
X139023464Y-107804287D01*
X139027950Y-107803282D01*
X139114675Y-107778569D01*
X139192526Y-107747771D01*
X139263047Y-107710068D01*
X139327778Y-107664637D01*
X139387193Y-107611715D01*
X139444700Y-107546719D01*
X139494047Y-107474258D01*
X139534418Y-107395936D01*
X139564995Y-107313355D01*
X139584961Y-107228120D01*
X139586006Y-107221680D01*
X139588073Y-107202483D01*
X139589846Y-107174098D01*
X139591323Y-107138062D01*
X139592503Y-107095908D01*
X139593384Y-107049172D01*
X139593965Y-106999389D01*
X139594246Y-106948093D01*
X139594224Y-106896821D01*
X139593899Y-106847106D01*
X139593269Y-106800485D01*
X139592333Y-106758491D01*
X139591090Y-106722660D01*
X139589539Y-106694527D01*
X139587678Y-106675627D01*
X139586450Y-106669476D01*
X139572383Y-106637370D01*
X139550942Y-106605219D01*
X139525425Y-106577690D01*
X139516137Y-106570007D01*
X139510376Y-106565444D01*
X139505306Y-106561271D01*
X139500408Y-106557472D01*
X139495162Y-106554030D01*
X139489047Y-106550929D01*
X139481544Y-106548151D01*
X139472133Y-106545681D01*
X139460294Y-106543502D01*
X139445507Y-106541596D01*
X139427252Y-106539947D01*
X139405010Y-106538538D01*
X139378260Y-106537354D01*
X139346482Y-106536376D01*
X139309157Y-106535589D01*
X139265765Y-106534976D01*
X139215785Y-106534520D01*
X139158699Y-106534204D01*
X139093985Y-106534011D01*
X139021124Y-106533926D01*
X138939597Y-106533931D01*
X138848883Y-106534009D01*
X138748462Y-106534145D01*
X138637815Y-106534321D01*
X138516421Y-106534520D01*
X138415098Y-106534679D01*
X137400344Y-106536219D01*
X137362425Y-106557096D01*
X137325002Y-106583491D01*
X137295431Y-106616475D01*
X137275298Y-106654169D01*
X137271910Y-106664161D01*
X137269430Y-106678601D01*
X137267325Y-106703153D01*
X137265596Y-106736269D01*
X137264241Y-106776399D01*
X137263259Y-106821993D01*
X137262649Y-106871504D01*
X137262410Y-106923382D01*
X137145301Y-106923382D01*
X137143660Y-106795437D01*
X136939842Y-106702056D01*
X136887673Y-106678205D01*
X136845086Y-106658887D01*
X136811087Y-106643709D01*
X136784682Y-106632277D01*
X136764878Y-106624195D01*
X136750680Y-106619072D01*
X136741094Y-106616512D01*
X136735127Y-106616122D01*
X136731785Y-106617508D01*
X136730579Y-106619116D01*
X136718899Y-106635374D01*
X136699818Y-106655398D01*
X136675947Y-106676960D01*
X136649899Y-106697837D01*
X136624284Y-106715803D01*
X136602531Y-106728243D01*
X136541326Y-106752284D01*
X136481220Y-106764791D01*
X136421552Y-106765764D01*
X136361663Y-106755205D01*
X136300892Y-106733112D01*
X136290857Y-106728418D01*
X136236202Y-106695781D01*
X136189153Y-106654474D01*
X136150282Y-106605135D01*
X136120162Y-106548401D01*
X136112902Y-106529989D01*
X136104406Y-106497623D01*
X136099042Y-106458068D01*
X136097895Y-106434488D01*
X136214515Y-106434488D01*
X136222680Y-106480050D01*
X136239516Y-106523160D01*
X136264717Y-106562227D01*
X136297978Y-106595664D01*
X136338994Y-106621881D01*
X136344769Y-106624625D01*
X136390131Y-106641386D01*
X136432905Y-106648294D01*
X136476090Y-106645742D01*
X136488538Y-106643412D01*
X136536832Y-106627400D01*
X136580716Y-106601523D01*
X136618350Y-106567237D01*
X136647893Y-106525999D01*
X136655494Y-106511239D01*
X136662576Y-106494930D01*
X136667142Y-106480118D01*
X136669728Y-106463454D01*
X136670871Y-106441589D01*
X136671109Y-106413711D01*
X136670867Y-106384639D01*
X136669787Y-106364013D01*
X136667306Y-106348611D01*
X136662859Y-106335214D01*
X136655880Y-106320603D01*
X136654238Y-106317454D01*
X136635989Y-106285554D01*
X136618115Y-106261438D01*
X136597742Y-106241683D01*
X136578421Y-106227207D01*
X136532310Y-106202015D01*
X136484096Y-106187753D01*
X136435198Y-106184272D01*
X136387034Y-106191421D01*
X136341022Y-106209049D01*
X136298580Y-106237006D01*
X136274656Y-106259486D01*
X136245090Y-106298971D01*
X136225414Y-106342359D01*
X136215324Y-106388061D01*
X136214515Y-106434488D01*
X136097895Y-106434488D01*
X136096968Y-106415418D01*
X136098339Y-106373765D01*
X136103314Y-106337202D01*
X136105194Y-106329122D01*
X136126322Y-106270538D01*
X136158096Y-106216279D01*
X136198507Y-106168695D01*
X136236214Y-106135038D01*
X136274838Y-106109510D01*
X136318617Y-106089553D01*
X136344137Y-106080745D01*
X136385277Y-106067701D01*
X136385277Y-105789075D01*
X136385277Y-105510450D01*
X136347358Y-105497931D01*
X136285010Y-105471869D01*
X136230647Y-105437658D01*
X136184665Y-105395688D01*
X136147463Y-105346346D01*
X136119439Y-105290024D01*
X136111281Y-105266877D01*
X136107196Y-105253648D01*
X136103944Y-105241652D01*
X136101429Y-105229393D01*
X136099556Y-105215373D01*
X136098231Y-105198096D01*
X136097359Y-105176063D01*
X136096845Y-105147778D01*
X136096596Y-105111743D01*
X136096515Y-105066461D01*
X136096508Y-105033287D01*
X136096508Y-104846460D01*
X136113561Y-104829408D01*
X136134243Y-104815888D01*
X136157000Y-104812339D01*
X136178903Y-104818268D01*
X136197026Y-104833182D01*
X136204151Y-104844673D01*
X136206878Y-104852171D01*
X136209016Y-104862737D01*
X136210630Y-104877717D01*
X136211787Y-104898456D01*
X136212552Y-104926301D01*
X136212990Y-104962599D01*
X136213169Y-105008694D01*
X136213182Y-105029484D01*
X136213331Y-105084221D01*
X136213918Y-105128813D01*
X136215156Y-105164780D01*
X136217258Y-105193641D01*
X136220437Y-105216917D01*
X136224907Y-105236128D01*
X136230879Y-105252795D01*
X136238567Y-105268436D01*
X136248183Y-105284572D01*
X136249110Y-105286037D01*
X136279660Y-105324052D01*
X136317406Y-105354699D01*
X136360346Y-105377089D01*
X136406478Y-105390333D01*
X136453800Y-105393540D01*
X136483123Y-105390046D01*
X136533563Y-105374541D01*
X136577998Y-105349635D01*
X136615417Y-105316400D01*
X136644814Y-105275907D01*
X136665178Y-105229230D01*
X136674472Y-105186759D01*
X136675871Y-105170063D01*
X136677135Y-105143813D01*
X136678208Y-105110124D01*
X136679029Y-105071109D01*
X136679543Y-105028882D01*
X136679689Y-104997127D01*
X136679880Y-104846460D01*
X136696932Y-104829408D01*
X136717721Y-104815780D01*
X136740481Y-104812287D01*
X136762389Y-104818426D01*
X136780620Y-104833694D01*
X136787965Y-104845604D01*
X136790671Y-104852571D01*
X136792774Y-104861612D01*
X136794324Y-104874064D01*
X136795371Y-104891260D01*
X136795964Y-104914536D01*
X136796155Y-104945225D01*
X136795992Y-104984662D01*
X136795525Y-105034181D01*
X136795409Y-105044601D01*
X136794818Y-105095017D01*
X136794233Y-105135299D01*
X136793527Y-105166980D01*
X136792578Y-105191593D01*
X136791260Y-105210670D01*
X136789448Y-105225746D01*
X136787019Y-105238352D01*
X136783848Y-105250021D01*
X136779810Y-105262287D01*
X136777092Y-105270080D01*
X136751416Y-105327260D01*
X136717039Y-105378787D01*
X136675235Y-105423458D01*
X136627277Y-105460071D01*
X136574436Y-105487423D01*
X136532578Y-105501084D01*
X136504868Y-105507953D01*
X136504868Y-105789683D01*
X136504868Y-106071413D01*
X136528730Y-106075444D01*
X136545003Y-106079941D01*
X136567502Y-106088394D01*
X136592177Y-106099235D01*
X136600193Y-106103113D01*
X136647112Y-106131872D01*
X136690585Y-106168948D01*
X136727952Y-106211681D01*
X136756550Y-106257407D01*
X136758589Y-106261549D01*
X136781407Y-106321357D01*
X136793167Y-106382357D01*
X136793661Y-106443282D01*
X136791571Y-106461427D01*
X136788510Y-106484037D01*
X136786516Y-106501686D01*
X136785879Y-106511645D01*
X136786076Y-106512870D01*
X136792212Y-106516064D01*
X136807415Y-106523290D01*
X136830157Y-106533858D01*
X136858912Y-106547078D01*
X136892152Y-106562260D01*
X136928349Y-106578713D01*
X136965977Y-106595747D01*
X137003507Y-106612672D01*
X137039413Y-106628798D01*
X137072168Y-106643434D01*
X137100243Y-106655890D01*
X137122112Y-106665476D01*
X137136248Y-106671502D01*
X137141078Y-106673311D01*
X137144538Y-106668139D01*
X137146446Y-106655235D01*
X137146577Y-106650242D01*
X137150020Y-106624150D01*
X137159340Y-106592972D01*
X137173026Y-106560653D01*
X137189567Y-106531136D01*
X137195545Y-106522478D01*
X137221264Y-106492214D01*
X137250903Y-106467427D01*
X137287781Y-106445498D01*
X137302062Y-106438463D01*
X137342007Y-106419544D01*
X137692768Y-106416761D01*
X138196646Y-106416761D01*
X138428536Y-106415236D01*
X138660426Y-106413711D01*
X138661987Y-106269326D01*
X138663547Y-106124942D01*
X138430096Y-106124942D01*
X138196646Y-106124942D01*
X138196646Y-106270852D01*
X138196646Y-106416761D01*
X137692768Y-106416761D01*
X137709531Y-106416628D01*
X138077055Y-106413711D01*
X138078599Y-106270852D01*
X138078615Y-106269326D01*
X138080175Y-106124942D01*
X137926539Y-106124942D01*
X137876696Y-106124805D01*
X137836999Y-106124344D01*
X137805926Y-106123484D01*
X137781959Y-106122147D01*
X137763577Y-106120259D01*
X137749260Y-106117742D01*
X137741216Y-106115676D01*
X137695210Y-106096381D01*
X137655132Y-106067747D01*
X137622434Y-106031116D01*
X137598565Y-105987827D01*
X137596053Y-105981425D01*
X137593753Y-105975067D01*
X137591764Y-105968594D01*
X137590068Y-105961163D01*
X137588645Y-105951933D01*
X137587476Y-105940061D01*
X137586542Y-105924703D01*
X137585823Y-105905019D01*
X137585300Y-105880164D01*
X137584954Y-105849298D01*
X137584766Y-105811577D01*
X137584716Y-105766158D01*
X137584785Y-105712200D01*
X137584954Y-105648860D01*
X137585204Y-105575295D01*
X137585387Y-105525174D01*
X137700780Y-105525174D01*
X137700781Y-105605644D01*
X137700823Y-105675287D01*
X137700963Y-105734943D01*
X137701257Y-105785452D01*
X137701763Y-105827655D01*
X137702538Y-105862391D01*
X137703640Y-105890501D01*
X137705124Y-105912824D01*
X137707049Y-105930202D01*
X137709471Y-105943474D01*
X137712447Y-105953481D01*
X137716035Y-105961063D01*
X137720292Y-105967059D01*
X137725274Y-105972311D01*
X137731039Y-105977658D01*
X137731561Y-105978138D01*
X137736413Y-105982679D01*
X137741001Y-105986733D01*
X137745981Y-105990327D01*
X137752004Y-105993487D01*
X137759726Y-105996238D01*
X137769800Y-105998608D01*
X137782879Y-106000622D01*
X137799619Y-106002307D01*
X137820672Y-106003690D01*
X137846693Y-106004796D01*
X137878335Y-106005652D01*
X137916253Y-106006285D01*
X137961099Y-106006719D01*
X138013529Y-106006983D01*
X138074196Y-106007102D01*
X138143753Y-106007103D01*
X138222855Y-106007011D01*
X138312155Y-106006854D01*
X138412308Y-106006656D01*
X138438745Y-106006605D01*
X139086288Y-106005351D01*
X139106928Y-105992513D01*
X139122723Y-105979234D01*
X139137697Y-105961252D01*
X139141930Y-105954594D01*
X139156292Y-105929512D01*
X139157989Y-105548554D01*
X139158266Y-105464462D01*
X139158313Y-105388814D01*
X139158134Y-105322056D01*
X139157736Y-105264636D01*
X139157121Y-105217000D01*
X139156295Y-105179596D01*
X139155262Y-105152869D01*
X139154028Y-105137268D01*
X139153742Y-105135441D01*
X139143386Y-105101201D01*
X139126225Y-105075832D01*
X139101469Y-105058206D01*
X139098532Y-105056820D01*
X139094417Y-105055128D01*
X139089503Y-105053621D01*
X139083128Y-105052288D01*
X139074631Y-105051118D01*
X139063349Y-105050101D01*
X139048619Y-105049225D01*
X139029781Y-105048480D01*
X139006171Y-105047855D01*
X138977127Y-105047339D01*
X138941987Y-105046922D01*
X138900089Y-105046592D01*
X138850771Y-105046338D01*
X138793371Y-105046151D01*
X138727226Y-105046018D01*
X138651674Y-105045930D01*
X138566053Y-105045875D01*
X138469700Y-105045842D01*
X138426537Y-105045832D01*
X137778453Y-105045704D01*
X137753050Y-105059138D01*
X137727876Y-105078303D01*
X137714214Y-105097975D01*
X137700780Y-105123378D01*
X137700780Y-105525174D01*
X137585387Y-105525174D01*
X137585420Y-105516174D01*
X137586876Y-105123378D01*
X137587023Y-105083623D01*
X137606801Y-105047150D01*
X137636257Y-105004494D01*
X137673583Y-104969973D01*
X137711426Y-104947467D01*
X137744533Y-104931947D01*
X138429995Y-104931947D01*
X139115456Y-104931947D01*
X139149454Y-104949158D01*
X139182783Y-104970878D01*
X139214377Y-105000191D01*
X139241021Y-105033639D01*
X139259346Y-105067379D01*
X139272967Y-105101125D01*
X139272967Y-105526986D01*
X139272967Y-105952847D01*
X139259429Y-105986372D01*
X139238223Y-106024931D01*
X139208059Y-106060334D01*
X139171642Y-106089731D01*
X139148689Y-106102925D01*
X139109914Y-106122025D01*
X138944966Y-106123889D01*
X138780018Y-106125754D01*
X138780018Y-106271191D01*
X138780018Y-106416628D01*
X139135354Y-106416628D01*
X139209023Y-106416646D01*
X139271976Y-106416718D01*
X139325167Y-106416871D01*
X139369548Y-106417132D01*
X139406072Y-106417528D01*
X139435690Y-106418086D01*
X139459356Y-106418832D01*
X139478021Y-106419795D01*
X139492639Y-106421000D01*
X139504161Y-106422474D01*
X139513540Y-106424245D01*
X139521729Y-106426339D01*
X139526203Y-106427680D01*
X139575910Y-106449051D01*
X139619573Y-106479737D01*
X139656109Y-106518493D01*
X139684440Y-106564075D01*
X139703485Y-106615241D01*
X139708337Y-106637423D01*
X139712167Y-106656032D01*
X139715882Y-106668959D01*
X139718411Y-106673190D01*
X139724422Y-106670804D01*
X139739752Y-106664088D01*
X139763133Y-106653615D01*
X139793298Y-106639959D01*
X139828977Y-106623693D01*
X139868903Y-106605390D01*
X139897174Y-106592376D01*
X139949909Y-106567858D01*
X139992388Y-106547647D01*
X140025094Y-106531491D01*
X140048513Y-106519142D01*
X140063131Y-106510350D01*
X140069430Y-106504865D01*
X140069727Y-106503533D01*
X140068510Y-106494624D01*
X140067121Y-106476822D01*
X140065749Y-106452895D01*
X140064936Y-106434488D01*
X140181442Y-106434488D01*
X140189607Y-106480050D01*
X140206443Y-106523160D01*
X140231644Y-106562227D01*
X140264905Y-106595664D01*
X140305921Y-106621881D01*
X140311696Y-106624625D01*
X140357058Y-106641386D01*
X140399832Y-106648294D01*
X140443017Y-106645742D01*
X140455465Y-106643412D01*
X140503759Y-106627400D01*
X140547643Y-106601523D01*
X140585277Y-106567237D01*
X140614820Y-106525999D01*
X140622421Y-106511239D01*
X140629503Y-106494930D01*
X140634069Y-106480118D01*
X140636655Y-106463454D01*
X140637798Y-106441589D01*
X140638035Y-106413711D01*
X140637794Y-106384639D01*
X140636714Y-106364013D01*
X140634233Y-106348611D01*
X140629785Y-106335214D01*
X140622807Y-106320603D01*
X140621165Y-106317454D01*
X140602916Y-106285554D01*
X140585042Y-106261438D01*
X140564669Y-106241683D01*
X140545348Y-106227207D01*
X140499237Y-106202015D01*
X140451023Y-106187753D01*
X140402125Y-106184272D01*
X140353961Y-106191421D01*
X140307949Y-106209049D01*
X140265507Y-106237006D01*
X140241583Y-106259486D01*
X140212017Y-106298971D01*
X140192341Y-106342359D01*
X140182251Y-106388061D01*
X140181442Y-106434488D01*
X140064936Y-106434488D01*
X140064791Y-106431212D01*
X140066641Y-106367449D01*
X140077749Y-106310055D01*
X140098638Y-106257661D01*
X140129834Y-106208898D01*
X140165434Y-106168695D01*
X140203141Y-106135038D01*
X140241765Y-106109510D01*
X140285544Y-106089553D01*
X140311064Y-106080745D01*
X140352204Y-106067701D01*
X140352204Y-105789075D01*
X140352204Y-105510450D01*
X140314285Y-105497931D01*
X140251937Y-105471869D01*
X140197574Y-105437658D01*
X140151592Y-105395688D01*
X140114390Y-105346346D01*
X140086366Y-105290024D01*
X140078208Y-105266877D01*
X140074123Y-105253648D01*
X140070871Y-105241652D01*
X140068356Y-105229393D01*
X140066483Y-105215373D01*
X140065158Y-105198096D01*
X140064286Y-105176063D01*
X140063772Y-105147778D01*
X140063523Y-105111743D01*
X140063442Y-105066461D01*
X140063435Y-105033287D01*
X140063435Y-104846460D01*
X140080487Y-104829408D01*
X140101170Y-104815888D01*
X140123926Y-104812339D01*
X140145830Y-104818268D01*
X140163953Y-104833182D01*
X140171078Y-104844673D01*
X140173805Y-104852171D01*
X140175942Y-104862737D01*
X140177557Y-104877717D01*
X140178714Y-104898456D01*
X140179479Y-104926301D01*
X140179917Y-104962599D01*
X140180096Y-105008694D01*
X140180109Y-105029484D01*
X140180258Y-105084221D01*
X140180844Y-105128813D01*
X140182083Y-105164780D01*
X140184185Y-105193641D01*
X140187364Y-105216917D01*
X140191834Y-105236128D01*
X140197806Y-105252795D01*
X140205494Y-105268436D01*
X140215110Y-105284572D01*
X140216037Y-105286037D01*
X140246587Y-105324052D01*
X140284333Y-105354699D01*
X140327273Y-105377089D01*
X140373405Y-105390333D01*
X140420727Y-105393540D01*
X140450050Y-105390046D01*
X140500490Y-105374541D01*
X140544925Y-105349635D01*
X140582344Y-105316400D01*
X140611741Y-105275907D01*
X140632105Y-105229230D01*
X140641399Y-105186759D01*
X140642798Y-105170063D01*
X140644062Y-105143813D01*
X140645135Y-105110124D01*
X140645956Y-105071109D01*
X140646470Y-105028882D01*
X140646616Y-104997127D01*
X140646807Y-104846460D01*
X140663859Y-104829408D01*
X140684648Y-104815780D01*
X140707408Y-104812287D01*
X140729316Y-104818426D01*
G37*
%TD*%
M02*
