%TF.GenerationSoftware,KiCad,Pcbnew,9.0.3*%
%TF.CreationDate,2025-07-17T16:21:41+10:00*%
%TF.ProjectId,motorMount,6d6f746f-724d-46f7-956e-742e6b696361,rev?*%
%TF.SameCoordinates,Original*%
%TF.FileFunction,Legend,Bot*%
%TF.FilePolarity,Positive*%
%FSLAX46Y46*%
G04 Gerber Fmt 4.6, Leading zero omitted, Abs format (unit mm)*
G04 Created by KiCad (PCBNEW 9.0.3) date 2025-07-17 16:21:41*
%MOMM*%
%LPD*%
G01*
G04 APERTURE LIST*
%ADD10C,0.150000*%
%ADD11C,0.250000*%
G04 APERTURE END LIST*
D10*
X161615601Y-106869819D02*
X161710839Y-107060295D01*
X161187030Y-107869819D02*
X161187030Y-106869819D01*
X160091792Y-107203152D02*
X159710840Y-107203152D01*
X159948935Y-106869819D02*
X159948935Y-107726961D01*
X159948935Y-107726961D02*
X159901316Y-107822200D01*
X159901316Y-107822200D02*
X159806078Y-107869819D01*
X159806078Y-107869819D02*
X159710840Y-107869819D01*
X159377506Y-107869819D02*
X159377506Y-106869819D01*
X158948935Y-107869819D02*
X158948935Y-107346009D01*
X158948935Y-107346009D02*
X158996554Y-107250771D01*
X158996554Y-107250771D02*
X159091792Y-107203152D01*
X159091792Y-107203152D02*
X159234649Y-107203152D01*
X159234649Y-107203152D02*
X159329887Y-107250771D01*
X159329887Y-107250771D02*
X159377506Y-107298390D01*
X158472744Y-107869819D02*
X158472744Y-107203152D01*
X158472744Y-106869819D02*
X158520363Y-106917438D01*
X158520363Y-106917438D02*
X158472744Y-106965057D01*
X158472744Y-106965057D02*
X158425125Y-106917438D01*
X158425125Y-106917438D02*
X158472744Y-106869819D01*
X158472744Y-106869819D02*
X158472744Y-106965057D01*
X157996554Y-107203152D02*
X157996554Y-107869819D01*
X157996554Y-107298390D02*
X157948935Y-107250771D01*
X157948935Y-107250771D02*
X157853697Y-107203152D01*
X157853697Y-107203152D02*
X157710840Y-107203152D01*
X157710840Y-107203152D02*
X157615602Y-107250771D01*
X157615602Y-107250771D02*
X157567983Y-107346009D01*
X157567983Y-107346009D02*
X157567983Y-107869819D01*
X157091792Y-107869819D02*
X157091792Y-106869819D01*
X156996554Y-107488866D02*
X156710840Y-107869819D01*
X156710840Y-107203152D02*
X157091792Y-107584104D01*
X155663220Y-107203152D02*
X155282268Y-107203152D01*
X155520363Y-106869819D02*
X155520363Y-107726961D01*
X155520363Y-107726961D02*
X155472744Y-107822200D01*
X155472744Y-107822200D02*
X155377506Y-107869819D01*
X155377506Y-107869819D02*
X155282268Y-107869819D01*
X154948934Y-107869819D02*
X154948934Y-106869819D01*
X154520363Y-107869819D02*
X154520363Y-107346009D01*
X154520363Y-107346009D02*
X154567982Y-107250771D01*
X154567982Y-107250771D02*
X154663220Y-107203152D01*
X154663220Y-107203152D02*
X154806077Y-107203152D01*
X154806077Y-107203152D02*
X154901315Y-107250771D01*
X154901315Y-107250771D02*
X154948934Y-107298390D01*
X154044172Y-107869819D02*
X154044172Y-107203152D01*
X154044172Y-106869819D02*
X154091791Y-106917438D01*
X154091791Y-106917438D02*
X154044172Y-106965057D01*
X154044172Y-106965057D02*
X153996553Y-106917438D01*
X153996553Y-106917438D02*
X154044172Y-106869819D01*
X154044172Y-106869819D02*
X154044172Y-106965057D01*
X153615601Y-107822200D02*
X153520363Y-107869819D01*
X153520363Y-107869819D02*
X153329887Y-107869819D01*
X153329887Y-107869819D02*
X153234649Y-107822200D01*
X153234649Y-107822200D02*
X153187030Y-107726961D01*
X153187030Y-107726961D02*
X153187030Y-107679342D01*
X153187030Y-107679342D02*
X153234649Y-107584104D01*
X153234649Y-107584104D02*
X153329887Y-107536485D01*
X153329887Y-107536485D02*
X153472744Y-107536485D01*
X153472744Y-107536485D02*
X153567982Y-107488866D01*
X153567982Y-107488866D02*
X153615601Y-107393628D01*
X153615601Y-107393628D02*
X153615601Y-107346009D01*
X153615601Y-107346009D02*
X153567982Y-107250771D01*
X153567982Y-107250771D02*
X153472744Y-107203152D01*
X153472744Y-107203152D02*
X153329887Y-107203152D01*
X153329887Y-107203152D02*
X153234649Y-107250771D01*
X151567982Y-107822200D02*
X151663220Y-107869819D01*
X151663220Y-107869819D02*
X151853696Y-107869819D01*
X151853696Y-107869819D02*
X151948934Y-107822200D01*
X151948934Y-107822200D02*
X151996553Y-107774580D01*
X151996553Y-107774580D02*
X152044172Y-107679342D01*
X152044172Y-107679342D02*
X152044172Y-107393628D01*
X152044172Y-107393628D02*
X151996553Y-107298390D01*
X151996553Y-107298390D02*
X151948934Y-107250771D01*
X151948934Y-107250771D02*
X151853696Y-107203152D01*
X151853696Y-107203152D02*
X151663220Y-107203152D01*
X151663220Y-107203152D02*
X151567982Y-107250771D01*
X150710839Y-107869819D02*
X150710839Y-107346009D01*
X150710839Y-107346009D02*
X150758458Y-107250771D01*
X150758458Y-107250771D02*
X150853696Y-107203152D01*
X150853696Y-107203152D02*
X151044172Y-107203152D01*
X151044172Y-107203152D02*
X151139410Y-107250771D01*
X150710839Y-107822200D02*
X150806077Y-107869819D01*
X150806077Y-107869819D02*
X151044172Y-107869819D01*
X151044172Y-107869819D02*
X151139410Y-107822200D01*
X151139410Y-107822200D02*
X151187029Y-107726961D01*
X151187029Y-107726961D02*
X151187029Y-107631723D01*
X151187029Y-107631723D02*
X151139410Y-107536485D01*
X151139410Y-107536485D02*
X151044172Y-107488866D01*
X151044172Y-107488866D02*
X150806077Y-107488866D01*
X150806077Y-107488866D02*
X150710839Y-107441247D01*
X150234648Y-107203152D02*
X150234648Y-107869819D01*
X150234648Y-107298390D02*
X150187029Y-107250771D01*
X150187029Y-107250771D02*
X150091791Y-107203152D01*
X150091791Y-107203152D02*
X149948934Y-107203152D01*
X149948934Y-107203152D02*
X149853696Y-107250771D01*
X149853696Y-107250771D02*
X149806077Y-107346009D01*
X149806077Y-107346009D02*
X149806077Y-107869819D01*
X148710838Y-107203152D02*
X148329886Y-107203152D01*
X148567981Y-106869819D02*
X148567981Y-107726961D01*
X148567981Y-107726961D02*
X148520362Y-107822200D01*
X148520362Y-107822200D02*
X148425124Y-107869819D01*
X148425124Y-107869819D02*
X148329886Y-107869819D01*
X147567981Y-107869819D02*
X147567981Y-107346009D01*
X147567981Y-107346009D02*
X147615600Y-107250771D01*
X147615600Y-107250771D02*
X147710838Y-107203152D01*
X147710838Y-107203152D02*
X147901314Y-107203152D01*
X147901314Y-107203152D02*
X147996552Y-107250771D01*
X147567981Y-107822200D02*
X147663219Y-107869819D01*
X147663219Y-107869819D02*
X147901314Y-107869819D01*
X147901314Y-107869819D02*
X147996552Y-107822200D01*
X147996552Y-107822200D02*
X148044171Y-107726961D01*
X148044171Y-107726961D02*
X148044171Y-107631723D01*
X148044171Y-107631723D02*
X147996552Y-107536485D01*
X147996552Y-107536485D02*
X147901314Y-107488866D01*
X147901314Y-107488866D02*
X147663219Y-107488866D01*
X147663219Y-107488866D02*
X147567981Y-107441247D01*
X147091790Y-107869819D02*
X147091790Y-106869819D01*
X146996552Y-107488866D02*
X146710838Y-107869819D01*
X146710838Y-107203152D02*
X147091790Y-107584104D01*
X145901314Y-107822200D02*
X145996552Y-107869819D01*
X145996552Y-107869819D02*
X146187028Y-107869819D01*
X146187028Y-107869819D02*
X146282266Y-107822200D01*
X146282266Y-107822200D02*
X146329885Y-107726961D01*
X146329885Y-107726961D02*
X146329885Y-107346009D01*
X146329885Y-107346009D02*
X146282266Y-107250771D01*
X146282266Y-107250771D02*
X146187028Y-107203152D01*
X146187028Y-107203152D02*
X145996552Y-107203152D01*
X145996552Y-107203152D02*
X145901314Y-107250771D01*
X145901314Y-107250771D02*
X145853695Y-107346009D01*
X145853695Y-107346009D02*
X145853695Y-107441247D01*
X145853695Y-107441247D02*
X146329885Y-107536485D01*
X144234647Y-107869819D02*
X144234647Y-107346009D01*
X144234647Y-107346009D02*
X144282266Y-107250771D01*
X144282266Y-107250771D02*
X144377504Y-107203152D01*
X144377504Y-107203152D02*
X144567980Y-107203152D01*
X144567980Y-107203152D02*
X144663218Y-107250771D01*
X144234647Y-107822200D02*
X144329885Y-107869819D01*
X144329885Y-107869819D02*
X144567980Y-107869819D01*
X144567980Y-107869819D02*
X144663218Y-107822200D01*
X144663218Y-107822200D02*
X144710837Y-107726961D01*
X144710837Y-107726961D02*
X144710837Y-107631723D01*
X144710837Y-107631723D02*
X144663218Y-107536485D01*
X144663218Y-107536485D02*
X144567980Y-107488866D01*
X144567980Y-107488866D02*
X144329885Y-107488866D01*
X144329885Y-107488866D02*
X144234647Y-107441247D01*
X142853694Y-107869819D02*
X142948932Y-107822200D01*
X142948932Y-107822200D02*
X142996551Y-107726961D01*
X142996551Y-107726961D02*
X142996551Y-106869819D01*
X142329884Y-107869819D02*
X142425122Y-107822200D01*
X142425122Y-107822200D02*
X142472741Y-107774580D01*
X142472741Y-107774580D02*
X142520360Y-107679342D01*
X142520360Y-107679342D02*
X142520360Y-107393628D01*
X142520360Y-107393628D02*
X142472741Y-107298390D01*
X142472741Y-107298390D02*
X142425122Y-107250771D01*
X142425122Y-107250771D02*
X142329884Y-107203152D01*
X142329884Y-107203152D02*
X142187027Y-107203152D01*
X142187027Y-107203152D02*
X142091789Y-107250771D01*
X142091789Y-107250771D02*
X142044170Y-107298390D01*
X142044170Y-107298390D02*
X141996551Y-107393628D01*
X141996551Y-107393628D02*
X141996551Y-107679342D01*
X141996551Y-107679342D02*
X142044170Y-107774580D01*
X142044170Y-107774580D02*
X142091789Y-107822200D01*
X142091789Y-107822200D02*
X142187027Y-107869819D01*
X142187027Y-107869819D02*
X142329884Y-107869819D01*
X141710836Y-107203152D02*
X141329884Y-107203152D01*
X141567979Y-106869819D02*
X141567979Y-107726961D01*
X141567979Y-107726961D02*
X141520360Y-107822200D01*
X141520360Y-107822200D02*
X141425122Y-107869819D01*
X141425122Y-107869819D02*
X141329884Y-107869819D01*
X140091788Y-107869819D02*
X140187026Y-107822200D01*
X140187026Y-107822200D02*
X140234645Y-107774580D01*
X140234645Y-107774580D02*
X140282264Y-107679342D01*
X140282264Y-107679342D02*
X140282264Y-107393628D01*
X140282264Y-107393628D02*
X140234645Y-107298390D01*
X140234645Y-107298390D02*
X140187026Y-107250771D01*
X140187026Y-107250771D02*
X140091788Y-107203152D01*
X140091788Y-107203152D02*
X139948931Y-107203152D01*
X139948931Y-107203152D02*
X139853693Y-107250771D01*
X139853693Y-107250771D02*
X139806074Y-107298390D01*
X139806074Y-107298390D02*
X139758455Y-107393628D01*
X139758455Y-107393628D02*
X139758455Y-107679342D01*
X139758455Y-107679342D02*
X139806074Y-107774580D01*
X139806074Y-107774580D02*
X139853693Y-107822200D01*
X139853693Y-107822200D02*
X139948931Y-107869819D01*
X139948931Y-107869819D02*
X140091788Y-107869819D01*
X139472740Y-107203152D02*
X139091788Y-107203152D01*
X139329883Y-107869819D02*
X139329883Y-107012676D01*
X139329883Y-107012676D02*
X139282264Y-106917438D01*
X139282264Y-106917438D02*
X139187026Y-106869819D01*
X139187026Y-106869819D02*
X139091788Y-106869819D01*
X137996549Y-107869819D02*
X137996549Y-106869819D01*
X137567978Y-107869819D02*
X137567978Y-107346009D01*
X137567978Y-107346009D02*
X137615597Y-107250771D01*
X137615597Y-107250771D02*
X137710835Y-107203152D01*
X137710835Y-107203152D02*
X137853692Y-107203152D01*
X137853692Y-107203152D02*
X137948930Y-107250771D01*
X137948930Y-107250771D02*
X137996549Y-107298390D01*
X137091787Y-107869819D02*
X137091787Y-107203152D01*
X137091787Y-106869819D02*
X137139406Y-106917438D01*
X137139406Y-106917438D02*
X137091787Y-106965057D01*
X137091787Y-106965057D02*
X137044168Y-106917438D01*
X137044168Y-106917438D02*
X137091787Y-106869819D01*
X137091787Y-106869819D02*
X137091787Y-106965057D01*
X136758454Y-107203152D02*
X136377502Y-107203152D01*
X136615597Y-106869819D02*
X136615597Y-107726961D01*
X136615597Y-107726961D02*
X136567978Y-107822200D01*
X136567978Y-107822200D02*
X136472740Y-107869819D01*
X136472740Y-107869819D02*
X136377502Y-107869819D01*
X136091787Y-107822200D02*
X135996549Y-107869819D01*
X135996549Y-107869819D02*
X135806073Y-107869819D01*
X135806073Y-107869819D02*
X135710835Y-107822200D01*
X135710835Y-107822200D02*
X135663216Y-107726961D01*
X135663216Y-107726961D02*
X135663216Y-107679342D01*
X135663216Y-107679342D02*
X135710835Y-107584104D01*
X135710835Y-107584104D02*
X135806073Y-107536485D01*
X135806073Y-107536485D02*
X135948930Y-107536485D01*
X135948930Y-107536485D02*
X136044168Y-107488866D01*
X136044168Y-107488866D02*
X136091787Y-107393628D01*
X136091787Y-107393628D02*
X136091787Y-107346009D01*
X136091787Y-107346009D02*
X136044168Y-107250771D01*
X136044168Y-107250771D02*
X135948930Y-107203152D01*
X135948930Y-107203152D02*
X135806073Y-107203152D01*
X135806073Y-107203152D02*
X135710835Y-107250771D01*
X135187025Y-106869819D02*
X135282263Y-107060295D01*
D11*
X158716479Y-103742238D02*
X159383146Y-102789857D01*
X159859336Y-103742238D02*
X159859336Y-101742238D01*
X159859336Y-101742238D02*
X159097431Y-101742238D01*
X159097431Y-101742238D02*
X158906955Y-101837476D01*
X158906955Y-101837476D02*
X158811717Y-101932714D01*
X158811717Y-101932714D02*
X158716479Y-102123190D01*
X158716479Y-102123190D02*
X158716479Y-102408904D01*
X158716479Y-102408904D02*
X158811717Y-102599380D01*
X158811717Y-102599380D02*
X158906955Y-102694619D01*
X158906955Y-102694619D02*
X159097431Y-102789857D01*
X159097431Y-102789857D02*
X159859336Y-102789857D01*
X157859336Y-103742238D02*
X157859336Y-101742238D01*
X157859336Y-101742238D02*
X157192669Y-103170809D01*
X157192669Y-103170809D02*
X156526003Y-101742238D01*
X156526003Y-101742238D02*
X156526003Y-103742238D01*
X155573622Y-103742238D02*
X155573622Y-101742238D01*
X154906955Y-101742238D02*
X153764098Y-101742238D01*
X154335527Y-103742238D02*
X154335527Y-101742238D01*
X150906954Y-102694619D02*
X150621240Y-102789857D01*
X150621240Y-102789857D02*
X150526002Y-102885095D01*
X150526002Y-102885095D02*
X150430764Y-103075571D01*
X150430764Y-103075571D02*
X150430764Y-103361285D01*
X150430764Y-103361285D02*
X150526002Y-103551761D01*
X150526002Y-103551761D02*
X150621240Y-103647000D01*
X150621240Y-103647000D02*
X150811716Y-103742238D01*
X150811716Y-103742238D02*
X151573621Y-103742238D01*
X151573621Y-103742238D02*
X151573621Y-101742238D01*
X151573621Y-101742238D02*
X150906954Y-101742238D01*
X150906954Y-101742238D02*
X150716478Y-101837476D01*
X150716478Y-101837476D02*
X150621240Y-101932714D01*
X150621240Y-101932714D02*
X150526002Y-102123190D01*
X150526002Y-102123190D02*
X150526002Y-102313666D01*
X150526002Y-102313666D02*
X150621240Y-102504142D01*
X150621240Y-102504142D02*
X150716478Y-102599380D01*
X150716478Y-102599380D02*
X150906954Y-102694619D01*
X150906954Y-102694619D02*
X151573621Y-102694619D01*
X148716478Y-103742238D02*
X148716478Y-102694619D01*
X148716478Y-102694619D02*
X148811716Y-102504142D01*
X148811716Y-102504142D02*
X149002192Y-102408904D01*
X149002192Y-102408904D02*
X149383145Y-102408904D01*
X149383145Y-102408904D02*
X149573621Y-102504142D01*
X148716478Y-103647000D02*
X148906954Y-103742238D01*
X148906954Y-103742238D02*
X149383145Y-103742238D01*
X149383145Y-103742238D02*
X149573621Y-103647000D01*
X149573621Y-103647000D02*
X149668859Y-103456523D01*
X149668859Y-103456523D02*
X149668859Y-103266047D01*
X149668859Y-103266047D02*
X149573621Y-103075571D01*
X149573621Y-103075571D02*
X149383145Y-102980333D01*
X149383145Y-102980333D02*
X148906954Y-102980333D01*
X148906954Y-102980333D02*
X148716478Y-102885095D01*
X148049811Y-102408904D02*
X147287907Y-102408904D01*
X147764097Y-101742238D02*
X147764097Y-103456523D01*
X147764097Y-103456523D02*
X147668859Y-103647000D01*
X147668859Y-103647000D02*
X147478383Y-103742238D01*
X147478383Y-103742238D02*
X147287907Y-103742238D01*
X146906954Y-102408904D02*
X146145050Y-102408904D01*
X146621240Y-101742238D02*
X146621240Y-103456523D01*
X146621240Y-103456523D02*
X146526002Y-103647000D01*
X146526002Y-103647000D02*
X146335526Y-103742238D01*
X146335526Y-103742238D02*
X146145050Y-103742238D01*
X145192669Y-103742238D02*
X145383145Y-103647000D01*
X145383145Y-103647000D02*
X145478383Y-103456523D01*
X145478383Y-103456523D02*
X145478383Y-101742238D01*
X143668859Y-103647000D02*
X143859335Y-103742238D01*
X143859335Y-103742238D02*
X144240288Y-103742238D01*
X144240288Y-103742238D02*
X144430764Y-103647000D01*
X144430764Y-103647000D02*
X144526002Y-103456523D01*
X144526002Y-103456523D02*
X144526002Y-102694619D01*
X144526002Y-102694619D02*
X144430764Y-102504142D01*
X144430764Y-102504142D02*
X144240288Y-102408904D01*
X144240288Y-102408904D02*
X143859335Y-102408904D01*
X143859335Y-102408904D02*
X143668859Y-102504142D01*
X143668859Y-102504142D02*
X143573621Y-102694619D01*
X143573621Y-102694619D02*
X143573621Y-102885095D01*
X143573621Y-102885095D02*
X144526002Y-103075571D01*
X142049811Y-102694619D02*
X141764097Y-102789857D01*
X141764097Y-102789857D02*
X141668859Y-102885095D01*
X141668859Y-102885095D02*
X141573621Y-103075571D01*
X141573621Y-103075571D02*
X141573621Y-103361285D01*
X141573621Y-103361285D02*
X141668859Y-103551761D01*
X141668859Y-103551761D02*
X141764097Y-103647000D01*
X141764097Y-103647000D02*
X141954573Y-103742238D01*
X141954573Y-103742238D02*
X142716478Y-103742238D01*
X142716478Y-103742238D02*
X142716478Y-101742238D01*
X142716478Y-101742238D02*
X142049811Y-101742238D01*
X142049811Y-101742238D02*
X141859335Y-101837476D01*
X141859335Y-101837476D02*
X141764097Y-101932714D01*
X141764097Y-101932714D02*
X141668859Y-102123190D01*
X141668859Y-102123190D02*
X141668859Y-102313666D01*
X141668859Y-102313666D02*
X141764097Y-102504142D01*
X141764097Y-102504142D02*
X141859335Y-102599380D01*
X141859335Y-102599380D02*
X142049811Y-102694619D01*
X142049811Y-102694619D02*
X142716478Y-102694619D01*
X140430764Y-103742238D02*
X140621240Y-103647000D01*
X140621240Y-103647000D02*
X140716478Y-103551761D01*
X140716478Y-103551761D02*
X140811716Y-103361285D01*
X140811716Y-103361285D02*
X140811716Y-102789857D01*
X140811716Y-102789857D02*
X140716478Y-102599380D01*
X140716478Y-102599380D02*
X140621240Y-102504142D01*
X140621240Y-102504142D02*
X140430764Y-102408904D01*
X140430764Y-102408904D02*
X140145049Y-102408904D01*
X140145049Y-102408904D02*
X139954573Y-102504142D01*
X139954573Y-102504142D02*
X139859335Y-102599380D01*
X139859335Y-102599380D02*
X139764097Y-102789857D01*
X139764097Y-102789857D02*
X139764097Y-103361285D01*
X139764097Y-103361285D02*
X139859335Y-103551761D01*
X139859335Y-103551761D02*
X139954573Y-103647000D01*
X139954573Y-103647000D02*
X140145049Y-103742238D01*
X140145049Y-103742238D02*
X140430764Y-103742238D01*
X139192668Y-102408904D02*
X138430764Y-102408904D01*
X138906954Y-101742238D02*
X138906954Y-103456523D01*
X138906954Y-103456523D02*
X138811716Y-103647000D01*
X138811716Y-103647000D02*
X138621240Y-103742238D01*
X138621240Y-103742238D02*
X138430764Y-103742238D01*
X137859335Y-103647000D02*
X137668859Y-103742238D01*
X137668859Y-103742238D02*
X137287907Y-103742238D01*
X137287907Y-103742238D02*
X137097430Y-103647000D01*
X137097430Y-103647000D02*
X137002192Y-103456523D01*
X137002192Y-103456523D02*
X137002192Y-103361285D01*
X137002192Y-103361285D02*
X137097430Y-103170809D01*
X137097430Y-103170809D02*
X137287907Y-103075571D01*
X137287907Y-103075571D02*
X137573621Y-103075571D01*
X137573621Y-103075571D02*
X137764097Y-102980333D01*
X137764097Y-102980333D02*
X137859335Y-102789857D01*
X137859335Y-102789857D02*
X137859335Y-102694619D01*
X137859335Y-102694619D02*
X137764097Y-102504142D01*
X137764097Y-102504142D02*
X137573621Y-102408904D01*
X137573621Y-102408904D02*
X137287907Y-102408904D01*
X137287907Y-102408904D02*
X137097430Y-102504142D01*
M02*
