%TF.GenerationSoftware,KiCad,Pcbnew,9.0.3*%
%TF.CreationDate,2025-07-17T16:21:41+10:00*%
%TF.ProjectId,motorMount,6d6f746f-724d-46f7-956e-742e6b696361,rev?*%
%TF.SameCoordinates,Original*%
%TF.FileFunction,Copper,L1,Top*%
%TF.FilePolarity,Positive*%
%FSLAX46Y46*%
G04 Gerber Fmt 4.6, Leading zero omitted, Abs format (unit mm)*
G04 Created by KiCad (PCBNEW 9.0.3) date 2025-07-17 16:21:41*
%MOMM*%
%LPD*%
G01*
G04 APERTURE LIST*
G04 Aperture macros list*
%AMRoundRect*
0 Rectangle with rounded corners*
0 $1 Rounding radius*
0 $2 $3 $4 $5 $6 $7 $8 $9 X,Y pos of 4 corners*
0 Add a 4 corners polygon primitive as box body*
4,1,4,$2,$3,$4,$5,$6,$7,$8,$9,$2,$3,0*
0 Add four circle primitives for the rounded corners*
1,1,$1+$1,$2,$3*
1,1,$1+$1,$4,$5*
1,1,$1+$1,$6,$7*
1,1,$1+$1,$8,$9*
0 Add four rect primitives between the rounded corners*
20,1,$1+$1,$2,$3,$4,$5,0*
20,1,$1+$1,$4,$5,$6,$7,0*
20,1,$1+$1,$6,$7,$8,$9,0*
20,1,$1+$1,$8,$9,$2,$3,0*%
G04 Aperture macros list end*
%TA.AperFunction,ComponentPad*%
%ADD10C,5.000000*%
%TD*%
%TA.AperFunction,SMDPad,CuDef*%
%ADD11RoundRect,0.450000X-1.050000X-1.050000X1.050000X-1.050000X1.050000X1.050000X-1.050000X1.050000X0*%
%TD*%
%TA.AperFunction,Conductor*%
%ADD12C,0.200000*%
%TD*%
G04 APERTURE END LIST*
D10*
%TO.P,H1,1,1*%
%TO.N,/motorpins*%
X138500000Y-98000000D03*
%TD*%
%TO.P,H2,1,1*%
%TO.N,Net-(H2-Pad1)*%
X158000000Y-94500000D03*
%TD*%
D11*
%TO.P,U1,1*%
%TO.N,/motorpins*%
X142500000Y-108500000D03*
%TO.P,U1,2*%
%TO.N,Net-(H2-Pad1)*%
X154500000Y-108500000D03*
%TD*%
D12*
%TO.N,/motorpins*%
X138500000Y-98000000D02*
X138500000Y-104500000D01*
X138500000Y-104500000D02*
X142500000Y-108500000D01*
%TO.N,Net-(H2-Pad1)*%
X158000000Y-105000000D02*
X154500000Y-108500000D01*
X158000000Y-93500000D02*
X158000000Y-105000000D01*
%TD*%
%TA.AperFunction,Conductor*%
%TO.N,/motorpins*%
G36*
X148909474Y-86405472D02*
G01*
X149715749Y-86443843D01*
X149721588Y-86444260D01*
X150525170Y-86520918D01*
X150530988Y-86521613D01*
X151329946Y-86636372D01*
X151335750Y-86637347D01*
X152128422Y-86789969D01*
X152134148Y-86791215D01*
X152918591Y-86981327D01*
X152924286Y-86982850D01*
X153698863Y-87210054D01*
X153704437Y-87211834D01*
X154467315Y-87475592D01*
X154472829Y-87477646D01*
X155222331Y-87777379D01*
X155227677Y-87779665D01*
X155886476Y-88080197D01*
X155962084Y-88114688D01*
X155967388Y-88117262D01*
X156360270Y-88319576D01*
X156685009Y-88486801D01*
X156690168Y-88489614D01*
X157389412Y-88892849D01*
X157394443Y-88895912D01*
X158073738Y-89331934D01*
X158078589Y-89335214D01*
X158297561Y-89490944D01*
X158736389Y-89803034D01*
X158741112Y-89806565D01*
X159375913Y-90305114D01*
X159380462Y-90308865D01*
X159990853Y-90837030D01*
X159995218Y-90840993D01*
X160579791Y-91397557D01*
X160583950Y-91401708D01*
X161141461Y-91985487D01*
X161145409Y-91989823D01*
X161555093Y-92461830D01*
X161674505Y-92599406D01*
X161678253Y-92603938D01*
X162072903Y-93104868D01*
X162098928Y-93169709D01*
X162099500Y-93181605D01*
X162099500Y-110475500D01*
X162079815Y-110542539D01*
X162027011Y-110588294D01*
X161975500Y-110599500D01*
X156098977Y-110599500D01*
X156031938Y-110579815D01*
X155986183Y-110527011D01*
X155976239Y-110457853D01*
X156005264Y-110394297D01*
X156041565Y-110365591D01*
X156075751Y-110347734D01*
X156225571Y-110225571D01*
X156347734Y-110075751D01*
X156437237Y-109904406D01*
X156490417Y-109718552D01*
X156500500Y-109605138D01*
X156500500Y-107400096D01*
X156520185Y-107333057D01*
X156536819Y-107312415D01*
X157386053Y-106463181D01*
X158358506Y-105490728D01*
X158358511Y-105490724D01*
X158368714Y-105480520D01*
X158368716Y-105480520D01*
X158480520Y-105368716D01*
X158559577Y-105231784D01*
X158600500Y-105079057D01*
X158600500Y-97539489D01*
X158620185Y-97472450D01*
X158672989Y-97426695D01*
X158696903Y-97418599D01*
X158831954Y-97387776D01*
X159150051Y-97276469D01*
X159453686Y-97130246D01*
X159739039Y-96950946D01*
X160002523Y-96740825D01*
X160240825Y-96502523D01*
X160450946Y-96239039D01*
X160630246Y-95953686D01*
X160776469Y-95650051D01*
X160887776Y-95331954D01*
X160962767Y-95003394D01*
X161000500Y-94668504D01*
X161000500Y-94331496D01*
X160962767Y-93996606D01*
X160887776Y-93668046D01*
X160776469Y-93349949D01*
X160630246Y-93046314D01*
X160450946Y-92760961D01*
X160240825Y-92497477D01*
X160002523Y-92259175D01*
X159739039Y-92049054D01*
X159453686Y-91869754D01*
X159453683Y-91869752D01*
X159150054Y-91723532D01*
X158831965Y-91612227D01*
X158831953Y-91612223D01*
X158503397Y-91537233D01*
X158503381Y-91537231D01*
X158168508Y-91499500D01*
X158168504Y-91499500D01*
X157831496Y-91499500D01*
X157831491Y-91499500D01*
X157496618Y-91537231D01*
X157496602Y-91537233D01*
X157168046Y-91612223D01*
X157168034Y-91612227D01*
X156849945Y-91723532D01*
X156546316Y-91869752D01*
X156260962Y-92049053D01*
X155997477Y-92259174D01*
X155759174Y-92497477D01*
X155549053Y-92760962D01*
X155369752Y-93046316D01*
X155223532Y-93349945D01*
X155112227Y-93668034D01*
X155112223Y-93668046D01*
X155037233Y-93996602D01*
X155037231Y-93996618D01*
X154999500Y-94331491D01*
X154999500Y-94668508D01*
X155037231Y-95003381D01*
X155037233Y-95003397D01*
X155112223Y-95331953D01*
X155112227Y-95331965D01*
X155223532Y-95650054D01*
X155369752Y-95953683D01*
X155369754Y-95953686D01*
X155549054Y-96239039D01*
X155759175Y-96502523D01*
X155997477Y-96740825D01*
X156260961Y-96950946D01*
X156546314Y-97130246D01*
X156849949Y-97276469D01*
X157088848Y-97360063D01*
X157168034Y-97387772D01*
X157168049Y-97387777D01*
X157212841Y-97398000D01*
X157303092Y-97418599D01*
X157364070Y-97452706D01*
X157396928Y-97514367D01*
X157399500Y-97539489D01*
X157399500Y-104699902D01*
X157379815Y-104766941D01*
X157363181Y-104787583D01*
X155687583Y-106463181D01*
X155626260Y-106496666D01*
X155599902Y-106499500D01*
X153394862Y-106499500D01*
X153389227Y-106500001D01*
X153281451Y-106509582D01*
X153095594Y-106562762D01*
X152924250Y-106652265D01*
X152774428Y-106774428D01*
X152652265Y-106924250D01*
X152562762Y-107095594D01*
X152509582Y-107281451D01*
X152499500Y-107394863D01*
X152499500Y-109605136D01*
X152509582Y-109718548D01*
X152562762Y-109904405D01*
X152562763Y-109904406D01*
X152652266Y-110075751D01*
X152699518Y-110133700D01*
X152774428Y-110225571D01*
X152896591Y-110325181D01*
X152924249Y-110347734D01*
X152958435Y-110365591D01*
X153008742Y-110414078D01*
X153024849Y-110482066D01*
X153001642Y-110547969D01*
X152946490Y-110590864D01*
X152901023Y-110599500D01*
X144097895Y-110599500D01*
X144030856Y-110579815D01*
X143985101Y-110527011D01*
X143975157Y-110457853D01*
X144004182Y-110394297D01*
X144040483Y-110365591D01*
X144075476Y-110347311D01*
X144225215Y-110225215D01*
X144347313Y-110075474D01*
X144436771Y-109904215D01*
X144489920Y-109718461D01*
X144489921Y-109718458D01*
X144499999Y-109605097D01*
X144499999Y-107394907D01*
X144499998Y-107394901D01*
X144489921Y-107281539D01*
X144436771Y-107095784D01*
X144375350Y-106978200D01*
X142764456Y-108589094D01*
X142703133Y-108622579D01*
X142633441Y-108617595D01*
X142589094Y-108589094D01*
X142500000Y-108500000D01*
X142410905Y-108589095D01*
X142349582Y-108622579D01*
X142279890Y-108617595D01*
X142235543Y-108589094D01*
X140624648Y-106978199D01*
X140624647Y-106978200D01*
X140563230Y-107095778D01*
X140563230Y-107095779D01*
X140510079Y-107281538D01*
X140510078Y-107281541D01*
X140500000Y-107394902D01*
X140500000Y-109605092D01*
X140500001Y-109605098D01*
X140510078Y-109718460D01*
X140563228Y-109904215D01*
X140652686Y-110075474D01*
X140774784Y-110225215D01*
X140924523Y-110347311D01*
X140959517Y-110365591D01*
X141009824Y-110414078D01*
X141025931Y-110482066D01*
X141002724Y-110547969D01*
X140947572Y-110590864D01*
X140902105Y-110599500D01*
X135024500Y-110599500D01*
X134957461Y-110579815D01*
X134911706Y-110527011D01*
X134900500Y-110475500D01*
X134900500Y-106624648D01*
X140978199Y-106624648D01*
X142500000Y-108146448D01*
X142500001Y-108146448D01*
X144021799Y-106624649D01*
X144021798Y-106624648D01*
X143904216Y-106563229D01*
X143718461Y-106510079D01*
X143718458Y-106510078D01*
X143605096Y-106500000D01*
X141394907Y-106500000D01*
X141394901Y-106500001D01*
X141281539Y-106510078D01*
X141095779Y-106563230D01*
X141095778Y-106563230D01*
X140978200Y-106624647D01*
X140978199Y-106624648D01*
X134900500Y-106624648D01*
X134900500Y-96058381D01*
X144599500Y-96058381D01*
X144599500Y-96076210D01*
X144599500Y-96441619D01*
X144605499Y-96502523D01*
X144637063Y-96823011D01*
X144711824Y-97198866D01*
X144711827Y-97198877D01*
X144823078Y-97565625D01*
X144969738Y-97919692D01*
X144969740Y-97919697D01*
X145150388Y-98257664D01*
X145150399Y-98257682D01*
X145363305Y-98576318D01*
X145363315Y-98576332D01*
X145606439Y-98872580D01*
X145877419Y-99143560D01*
X145877424Y-99143564D01*
X145877425Y-99143565D01*
X146173673Y-99386689D01*
X146492324Y-99599605D01*
X146492333Y-99599610D01*
X146492335Y-99599611D01*
X146830302Y-99780259D01*
X146830304Y-99780259D01*
X146830310Y-99780263D01*
X147184376Y-99926922D01*
X147551113Y-100038170D01*
X147551119Y-100038171D01*
X147551122Y-100038172D01*
X147551133Y-100038175D01*
X147926988Y-100112936D01*
X148308381Y-100150500D01*
X148308384Y-100150500D01*
X148691616Y-100150500D01*
X148691619Y-100150500D01*
X149073012Y-100112936D01*
X149146180Y-100098381D01*
X149448866Y-100038175D01*
X149448877Y-100038172D01*
X149448877Y-100038171D01*
X149448887Y-100038170D01*
X149815624Y-99926922D01*
X150169690Y-99780263D01*
X150507676Y-99599605D01*
X150826327Y-99386689D01*
X151122575Y-99143565D01*
X151393565Y-98872575D01*
X151636689Y-98576327D01*
X151849605Y-98257676D01*
X152030263Y-97919690D01*
X152176922Y-97565624D01*
X152288170Y-97198887D01*
X152288172Y-97198877D01*
X152288175Y-97198866D01*
X152362936Y-96823011D01*
X152394501Y-96502523D01*
X152400500Y-96441619D01*
X152400500Y-96058381D01*
X152362936Y-95676988D01*
X152357578Y-95650051D01*
X152288175Y-95301133D01*
X152288172Y-95301122D01*
X152288171Y-95301119D01*
X152288170Y-95301113D01*
X152176922Y-94934376D01*
X152030263Y-94580310D01*
X151849605Y-94242324D01*
X151636689Y-93923673D01*
X151393565Y-93627425D01*
X151393564Y-93627424D01*
X151393560Y-93627419D01*
X151122580Y-93356439D01*
X150826332Y-93113315D01*
X150826331Y-93113314D01*
X150826327Y-93113311D01*
X150507676Y-92900395D01*
X150507671Y-92900392D01*
X150507664Y-92900388D01*
X150169697Y-92719740D01*
X150169692Y-92719738D01*
X149815625Y-92573078D01*
X149448877Y-92461827D01*
X149448866Y-92461824D01*
X149073011Y-92387063D01*
X148785763Y-92358772D01*
X148691619Y-92349500D01*
X148308381Y-92349500D01*
X148221394Y-92358067D01*
X147926988Y-92387063D01*
X147551133Y-92461824D01*
X147551122Y-92461827D01*
X147184374Y-92573078D01*
X146830307Y-92719738D01*
X146830302Y-92719740D01*
X146492335Y-92900388D01*
X146492317Y-92900399D01*
X146173681Y-93113305D01*
X146173667Y-93113315D01*
X145877419Y-93356439D01*
X145606439Y-93627419D01*
X145363315Y-93923667D01*
X145363305Y-93923681D01*
X145150399Y-94242317D01*
X145150388Y-94242335D01*
X144969740Y-94580302D01*
X144969738Y-94580307D01*
X144823078Y-94934374D01*
X144711827Y-95301122D01*
X144711824Y-95301133D01*
X144637063Y-95676988D01*
X144609812Y-95953683D01*
X144599500Y-96058381D01*
X134900500Y-96058381D01*
X134900500Y-93181605D01*
X134920185Y-93114566D01*
X134927097Y-93104868D01*
X135321766Y-92603913D01*
X135325464Y-92599442D01*
X135854611Y-91989800D01*
X135858516Y-91985510D01*
X136416069Y-91401687D01*
X136420194Y-91397570D01*
X137004809Y-90840966D01*
X137009118Y-90837055D01*
X137619545Y-90308858D01*
X137624086Y-90305114D01*
X138258914Y-89806544D01*
X138263582Y-89803054D01*
X138921429Y-89335200D01*
X138926242Y-89331947D01*
X139605574Y-88895900D01*
X139610563Y-88892863D01*
X140309849Y-88489604D01*
X140314972Y-88486810D01*
X141032616Y-88117259D01*
X141037894Y-88114698D01*
X141772337Y-87779658D01*
X141777653Y-87777385D01*
X142527183Y-87477641D01*
X142532670Y-87475597D01*
X143295574Y-87211829D01*
X143301124Y-87210057D01*
X144075723Y-86982847D01*
X144081397Y-86981329D01*
X144865860Y-86791213D01*
X144871568Y-86789971D01*
X145664256Y-86637345D01*
X145670046Y-86636373D01*
X146469016Y-86521613D01*
X146474824Y-86520918D01*
X147278414Y-86444260D01*
X147284247Y-86443843D01*
X148090525Y-86405472D01*
X148096419Y-86405333D01*
X148903581Y-86405333D01*
X148909474Y-86405472D01*
G37*
%TD.AperFunction*%
%TD*%
M02*
