%TF.GenerationSoftware,KiCad,Pcbnew,9.0.3*%
%TF.CreationDate,2025-07-17T16:21:41+10:00*%
%TF.ProjectId,motorMount,6d6f746f-724d-46f7-956e-742e6b696361,rev?*%
%TF.SameCoordinates,Original*%
%TF.FileFunction,Legend,Top*%
%TF.FilePolarity,Positive*%
%FSLAX46Y46*%
G04 Gerber Fmt 4.6, Leading zero omitted, Abs format (unit mm)*
G04 Created by KiCad (PCBNEW 9.0.3) date 2025-07-17 16:21:41*
%MOMM*%
%LPD*%
G01*
G04 APERTURE LIST*
%ADD10C,0.150000*%
%ADD11C,0.000000*%
G04 APERTURE END LIST*
D10*
X137738095Y-95004819D02*
X137738095Y-94004819D01*
X137738095Y-94481009D02*
X138309523Y-94481009D01*
X138309523Y-95004819D02*
X138309523Y-94004819D01*
X139309523Y-95004819D02*
X138738095Y-95004819D01*
X139023809Y-95004819D02*
X139023809Y-94004819D01*
X139023809Y-94004819D02*
X138928571Y-94147676D01*
X138928571Y-94147676D02*
X138833333Y-94242914D01*
X138833333Y-94242914D02*
X138738095Y-94290533D01*
X157238095Y-91504819D02*
X157238095Y-90504819D01*
X157238095Y-90981009D02*
X157809523Y-90981009D01*
X157809523Y-91504819D02*
X157809523Y-90504819D01*
X158238095Y-90600057D02*
X158285714Y-90552438D01*
X158285714Y-90552438D02*
X158380952Y-90504819D01*
X158380952Y-90504819D02*
X158619047Y-90504819D01*
X158619047Y-90504819D02*
X158714285Y-90552438D01*
X158714285Y-90552438D02*
X158761904Y-90600057D01*
X158761904Y-90600057D02*
X158809523Y-90695295D01*
X158809523Y-90695295D02*
X158809523Y-90790533D01*
X158809523Y-90790533D02*
X158761904Y-90933390D01*
X158761904Y-90933390D02*
X158190476Y-91504819D01*
X158190476Y-91504819D02*
X158809523Y-91504819D01*
X147863095Y-108954819D02*
X147863095Y-109764342D01*
X147863095Y-109764342D02*
X147910714Y-109859580D01*
X147910714Y-109859580D02*
X147958333Y-109907200D01*
X147958333Y-109907200D02*
X148053571Y-109954819D01*
X148053571Y-109954819D02*
X148244047Y-109954819D01*
X148244047Y-109954819D02*
X148339285Y-109907200D01*
X148339285Y-109907200D02*
X148386904Y-109859580D01*
X148386904Y-109859580D02*
X148434523Y-109764342D01*
X148434523Y-109764342D02*
X148434523Y-108954819D01*
X149434523Y-109954819D02*
X148863095Y-109954819D01*
X149148809Y-109954819D02*
X149148809Y-108954819D01*
X149148809Y-108954819D02*
X149053571Y-109097676D01*
X149053571Y-109097676D02*
X148958333Y-109192914D01*
X148958333Y-109192914D02*
X148863095Y-109240533D01*
D11*
%TO.C,G\u002A\u002A\u002A*%
G36*
X148541313Y-104616705D02*
G01*
X148647900Y-104616800D01*
X148743581Y-104616963D01*
X148828734Y-104617197D01*
X148903741Y-104617505D01*
X148968980Y-104617891D01*
X149024831Y-104618358D01*
X149071676Y-104618909D01*
X149109894Y-104619548D01*
X149139864Y-104620277D01*
X149161968Y-104621101D01*
X149176584Y-104622022D01*
X149184094Y-104623044D01*
X149184905Y-104623316D01*
X149199986Y-104635766D01*
X149210914Y-104655013D01*
X149215487Y-104676351D01*
X149214604Y-104686794D01*
X149207598Y-104701978D01*
X149195337Y-104716833D01*
X149193335Y-104718606D01*
X149175815Y-104733348D01*
X148431005Y-104732978D01*
X148338543Y-104732893D01*
X148249194Y-104732736D01*
X148163664Y-104732510D01*
X148082660Y-104732221D01*
X148006889Y-104731875D01*
X147937058Y-104731476D01*
X147873873Y-104731029D01*
X147818042Y-104730540D01*
X147770270Y-104730013D01*
X147731266Y-104729453D01*
X147701735Y-104728866D01*
X147682384Y-104728256D01*
X147673921Y-104727629D01*
X147673694Y-104727563D01*
X147655882Y-104714750D01*
X147645297Y-104695585D01*
X147642417Y-104673235D01*
X147647722Y-104650865D01*
X147659495Y-104633726D01*
X147676548Y-104616673D01*
X148423438Y-104616673D01*
X148541313Y-104616705D01*
G37*
G36*
X148722169Y-104908370D02*
G01*
X148799856Y-104908447D01*
X148868317Y-104908603D01*
X148928161Y-104908864D01*
X148979999Y-104909256D01*
X149024441Y-104909804D01*
X149062097Y-104910535D01*
X149093577Y-104911474D01*
X149119492Y-104912646D01*
X149140451Y-104914077D01*
X149157066Y-104915793D01*
X149169945Y-104917820D01*
X149179699Y-104920184D01*
X149186939Y-104922909D01*
X149192275Y-104926022D01*
X149196316Y-104929548D01*
X149199673Y-104933514D01*
X149202957Y-104937944D01*
X149205355Y-104941104D01*
X149214959Y-104961307D01*
X149213177Y-104982252D01*
X149200166Y-105002988D01*
X149194134Y-105008991D01*
X149176526Y-105025034D01*
X148431361Y-105024664D01*
X148338877Y-105024579D01*
X148249505Y-105024421D01*
X148163952Y-105024196D01*
X148082925Y-105023908D01*
X148007130Y-105023561D01*
X147937275Y-105023162D01*
X147874065Y-105022716D01*
X147818207Y-105022226D01*
X147770408Y-105021700D01*
X147731374Y-105021140D01*
X147701812Y-105020553D01*
X147682428Y-105019944D01*
X147673930Y-105019317D01*
X147673694Y-105019249D01*
X147656798Y-105006926D01*
X147646102Y-104988289D01*
X147642363Y-104966929D01*
X147646337Y-104946441D01*
X147655569Y-104933100D01*
X147671172Y-104921657D01*
X147685117Y-104914582D01*
X147692797Y-104913539D01*
X147710186Y-104912597D01*
X147737468Y-104911754D01*
X147774824Y-104911008D01*
X147822435Y-104910358D01*
X147880484Y-104909802D01*
X147949152Y-104909339D01*
X148028622Y-104908967D01*
X148119074Y-104908685D01*
X148220691Y-104908491D01*
X148333654Y-104908384D01*
X148427645Y-104908359D01*
X148536673Y-104908352D01*
X148634645Y-104908347D01*
X148722169Y-104908370D01*
G37*
G36*
X148541313Y-104325019D02*
G01*
X148647900Y-104325114D01*
X148743581Y-104325277D01*
X148828734Y-104325511D01*
X148903741Y-104325820D01*
X148968980Y-104326205D01*
X149024831Y-104326672D01*
X149071676Y-104327223D01*
X149109894Y-104327862D01*
X149139864Y-104328591D01*
X149161968Y-104329415D01*
X149176584Y-104330336D01*
X149184094Y-104331358D01*
X149184905Y-104331630D01*
X149197746Y-104342199D01*
X149209333Y-104359172D01*
X149216550Y-104377431D01*
X149217546Y-104385217D01*
X149212761Y-104398608D01*
X149200576Y-104413557D01*
X149184249Y-104426872D01*
X149167036Y-104435361D01*
X149166126Y-104435625D01*
X149156488Y-104436639D01*
X149135270Y-104437560D01*
X149102561Y-104438385D01*
X149058448Y-104439116D01*
X149003019Y-104439750D01*
X148936361Y-104440288D01*
X148858564Y-104440728D01*
X148769713Y-104441071D01*
X148669898Y-104441314D01*
X148559205Y-104441459D01*
X148437724Y-104441503D01*
X148424161Y-104441501D01*
X148317447Y-104441482D01*
X148221774Y-104441448D01*
X148136515Y-104441390D01*
X148061044Y-104441298D01*
X147994735Y-104441163D01*
X147936961Y-104440976D01*
X147887096Y-104440728D01*
X147844514Y-104440408D01*
X147808586Y-104440008D01*
X147778689Y-104439518D01*
X147754194Y-104438929D01*
X147734476Y-104438231D01*
X147718907Y-104437416D01*
X147706863Y-104436473D01*
X147697715Y-104435394D01*
X147690838Y-104434168D01*
X147685605Y-104432788D01*
X147681390Y-104431242D01*
X147679374Y-104430362D01*
X147656861Y-104415304D01*
X147644226Y-104396181D01*
X147641893Y-104374872D01*
X147650283Y-104353254D01*
X147659495Y-104342040D01*
X147676548Y-104324988D01*
X148423438Y-104324988D01*
X148541313Y-104325019D01*
G37*
G36*
X147451656Y-105961663D02*
G01*
X147471634Y-105963073D01*
X147487272Y-105966256D01*
X147502229Y-105971896D01*
X147516013Y-105978557D01*
X147549430Y-106000282D01*
X147580867Y-106029430D01*
X147607210Y-106062633D01*
X147625342Y-106096526D01*
X147625441Y-106096777D01*
X147636063Y-106137413D01*
X147639054Y-106182159D01*
X147634414Y-106226359D01*
X147625524Y-106257387D01*
X147605537Y-106294639D01*
X147576752Y-106329309D01*
X147542028Y-106358347D01*
X147517149Y-106372993D01*
X147474462Y-106388247D01*
X147428486Y-106394642D01*
X147382977Y-106391893D01*
X147356060Y-106385276D01*
X147309541Y-106363954D01*
X147269985Y-106333547D01*
X147238333Y-106294962D01*
X147216235Y-106251004D01*
X147209840Y-106231388D01*
X147206412Y-106212367D01*
X147205434Y-106189609D01*
X147206083Y-106165525D01*
X147206149Y-106164471D01*
X147322806Y-106164471D01*
X147323464Y-106196237D01*
X147329587Y-106216758D01*
X147346749Y-106243265D01*
X147371094Y-106262517D01*
X147400103Y-106273738D01*
X147431259Y-106276155D01*
X147462044Y-106268993D01*
X147476135Y-106261811D01*
X147498943Y-106241142D01*
X147513590Y-106213336D01*
X147519147Y-106180407D01*
X147518846Y-106169002D01*
X147511955Y-106135023D01*
X147496531Y-106108801D01*
X147472188Y-106089740D01*
X147465092Y-106086218D01*
X147432298Y-106076517D01*
X147400693Y-106078213D01*
X147373859Y-106088536D01*
X147348945Y-106107892D01*
X147331613Y-106134113D01*
X147322806Y-106164471D01*
X147206149Y-106164471D01*
X147207793Y-106138081D01*
X147210817Y-106117904D01*
X147216233Y-106100597D01*
X147225119Y-106081761D01*
X147227874Y-106076549D01*
X147256960Y-106034066D01*
X147294099Y-105999580D01*
X147332234Y-105976865D01*
X147349545Y-105969446D01*
X147365442Y-105964822D01*
X147383652Y-105962362D01*
X147407901Y-105961433D01*
X147423679Y-105961345D01*
X147451656Y-105961663D01*
G37*
G36*
X148122534Y-105961663D02*
G01*
X148142511Y-105963073D01*
X148158149Y-105966256D01*
X148173107Y-105971896D01*
X148186891Y-105978557D01*
X148220307Y-106000282D01*
X148251745Y-106029430D01*
X148278088Y-106062633D01*
X148296220Y-106096526D01*
X148296318Y-106096777D01*
X148306940Y-106137413D01*
X148309932Y-106182159D01*
X148305291Y-106226359D01*
X148296401Y-106257387D01*
X148276415Y-106294639D01*
X148247630Y-106329309D01*
X148212906Y-106358347D01*
X148188027Y-106372993D01*
X148145340Y-106388247D01*
X148099363Y-106394642D01*
X148053855Y-106391893D01*
X148026937Y-106385276D01*
X147980419Y-106363954D01*
X147940862Y-106333547D01*
X147909210Y-106294962D01*
X147887112Y-106251004D01*
X147880718Y-106231388D01*
X147877289Y-106212367D01*
X147876312Y-106189609D01*
X147876961Y-106165525D01*
X147877027Y-106164471D01*
X147993683Y-106164471D01*
X147994341Y-106196237D01*
X148000465Y-106216758D01*
X148017626Y-106243265D01*
X148041971Y-106262517D01*
X148070980Y-106273738D01*
X148102137Y-106276155D01*
X148132921Y-106268993D01*
X148147012Y-106261811D01*
X148169821Y-106241142D01*
X148184467Y-106213336D01*
X148190024Y-106180407D01*
X148189723Y-106169002D01*
X148182833Y-106135023D01*
X148167409Y-106108801D01*
X148143065Y-106089740D01*
X148135969Y-106086218D01*
X148103175Y-106076517D01*
X148071570Y-106078213D01*
X148044736Y-106088536D01*
X148019822Y-106107892D01*
X148002491Y-106134113D01*
X147993683Y-106164471D01*
X147877027Y-106164471D01*
X147878670Y-106138081D01*
X147881694Y-106117904D01*
X147887111Y-106100597D01*
X147895996Y-106081761D01*
X147898751Y-106076549D01*
X147927838Y-106034066D01*
X147964977Y-105999580D01*
X148003112Y-105976865D01*
X148020422Y-105969446D01*
X148036319Y-105964822D01*
X148054529Y-105962362D01*
X148078778Y-105961433D01*
X148094556Y-105961345D01*
X148122534Y-105961663D01*
G37*
G36*
X148793411Y-105961663D02*
G01*
X148813389Y-105963073D01*
X148829026Y-105966256D01*
X148843984Y-105971896D01*
X148857768Y-105978557D01*
X148891184Y-106000282D01*
X148922622Y-106029430D01*
X148948965Y-106062633D01*
X148967097Y-106096526D01*
X148967195Y-106096777D01*
X148977817Y-106137413D01*
X148980809Y-106182159D01*
X148976168Y-106226359D01*
X148967278Y-106257387D01*
X148947292Y-106294639D01*
X148918507Y-106329309D01*
X148883783Y-106358347D01*
X148858904Y-106372993D01*
X148816217Y-106388247D01*
X148770240Y-106394642D01*
X148724732Y-106391893D01*
X148697814Y-106385276D01*
X148651296Y-106363954D01*
X148611740Y-106333547D01*
X148580087Y-106294962D01*
X148557989Y-106251004D01*
X148551595Y-106231388D01*
X148548166Y-106212367D01*
X148547189Y-106189609D01*
X148547838Y-106165525D01*
X148547904Y-106164471D01*
X148664560Y-106164471D01*
X148665219Y-106196237D01*
X148671342Y-106216758D01*
X148688504Y-106243265D01*
X148712848Y-106262517D01*
X148741858Y-106273738D01*
X148773014Y-106276155D01*
X148803799Y-106268993D01*
X148817890Y-106261811D01*
X148840698Y-106241142D01*
X148855345Y-106213336D01*
X148860902Y-106180407D01*
X148860601Y-106169002D01*
X148853710Y-106135023D01*
X148838286Y-106108801D01*
X148813942Y-106089740D01*
X148806846Y-106086218D01*
X148774053Y-106076517D01*
X148742447Y-106078213D01*
X148715613Y-106088536D01*
X148690700Y-106107892D01*
X148673368Y-106134113D01*
X148664560Y-106164471D01*
X148547904Y-106164471D01*
X148549547Y-106138081D01*
X148552572Y-106117904D01*
X148557988Y-106100597D01*
X148566874Y-106081761D01*
X148569629Y-106076549D01*
X148598715Y-106034066D01*
X148635854Y-105999580D01*
X148673989Y-105976865D01*
X148691299Y-105969446D01*
X148707197Y-105964822D01*
X148725407Y-105962362D01*
X148749656Y-105961433D01*
X148765433Y-105961345D01*
X148793411Y-105961663D01*
G37*
G36*
X149464288Y-105961663D02*
G01*
X149484266Y-105963073D01*
X149499904Y-105966256D01*
X149514861Y-105971896D01*
X149528645Y-105978557D01*
X149562062Y-106000282D01*
X149593499Y-106029430D01*
X149619842Y-106062633D01*
X149637974Y-106096526D01*
X149638073Y-106096777D01*
X149648695Y-106137413D01*
X149651686Y-106182159D01*
X149647046Y-106226359D01*
X149638156Y-106257387D01*
X149618169Y-106294639D01*
X149589385Y-106329309D01*
X149554660Y-106358347D01*
X149529781Y-106372993D01*
X149487094Y-106388247D01*
X149441118Y-106394642D01*
X149395609Y-106391893D01*
X149368692Y-106385276D01*
X149322173Y-106363954D01*
X149282617Y-106333547D01*
X149250965Y-106294962D01*
X149228867Y-106251004D01*
X149222472Y-106231388D01*
X149219044Y-106212367D01*
X149218066Y-106189609D01*
X149218716Y-106165525D01*
X149218782Y-106164471D01*
X149335438Y-106164471D01*
X149336096Y-106196237D01*
X149342219Y-106216758D01*
X149359381Y-106243265D01*
X149383726Y-106262517D01*
X149412735Y-106273738D01*
X149443891Y-106276155D01*
X149474676Y-106268993D01*
X149488767Y-106261811D01*
X149511575Y-106241142D01*
X149526222Y-106213336D01*
X149531779Y-106180407D01*
X149531478Y-106169002D01*
X149524587Y-106135023D01*
X149509163Y-106108801D01*
X149484820Y-106089740D01*
X149477724Y-106086218D01*
X149444930Y-106076517D01*
X149413325Y-106078213D01*
X149386491Y-106088536D01*
X149361577Y-106107892D01*
X149344245Y-106134113D01*
X149335438Y-106164471D01*
X149218782Y-106164471D01*
X149220425Y-106138081D01*
X149223449Y-106117904D01*
X149228865Y-106100597D01*
X149237751Y-106081761D01*
X149240506Y-106076549D01*
X149269592Y-106034066D01*
X149306732Y-105999580D01*
X149344866Y-105976865D01*
X149362177Y-105969446D01*
X149378074Y-105964822D01*
X149396284Y-105962362D01*
X149420533Y-105961433D01*
X149436311Y-105961345D01*
X149464288Y-105961663D01*
G37*
G36*
X148831542Y-102781747D02*
G01*
X148878153Y-102794137D01*
X148921428Y-102815360D01*
X148960068Y-102844745D01*
X148992778Y-102881621D01*
X149018261Y-102925314D01*
X149035220Y-102975155D01*
X149037725Y-102987133D01*
X149040994Y-103035554D01*
X149033641Y-103084541D01*
X149016368Y-103131841D01*
X148989876Y-103175203D01*
X148972909Y-103195218D01*
X148932336Y-103230037D01*
X148886495Y-103255063D01*
X148836935Y-103269851D01*
X148785207Y-103273956D01*
X148732859Y-103266934D01*
X148727514Y-103265566D01*
X148679008Y-103246698D01*
X148635926Y-103217904D01*
X148599308Y-103180075D01*
X148570194Y-103134097D01*
X148567731Y-103129076D01*
X148559807Y-103111753D01*
X148554599Y-103097184D01*
X148551541Y-103082094D01*
X148550066Y-103063206D01*
X148549610Y-103037246D01*
X148549609Y-103036602D01*
X148664282Y-103036602D01*
X148671085Y-103069468D01*
X148685798Y-103098838D01*
X148707179Y-103123468D01*
X148733984Y-103142116D01*
X148764969Y-103153540D01*
X148798889Y-103156499D01*
X148834502Y-103149749D01*
X148855244Y-103140998D01*
X148885344Y-103120453D01*
X148905735Y-103094281D01*
X148916850Y-103061665D01*
X148919122Y-103021788D01*
X148919068Y-103020660D01*
X148917021Y-102995781D01*
X148913017Y-102977949D01*
X148905723Y-102962564D01*
X148899478Y-102952974D01*
X148874303Y-102925731D01*
X148844200Y-102907520D01*
X148811176Y-102898228D01*
X148777237Y-102897741D01*
X148744388Y-102905949D01*
X148714637Y-102922736D01*
X148689988Y-102947992D01*
X148679386Y-102965348D01*
X148666635Y-103001481D01*
X148664282Y-103036602D01*
X148549609Y-103036602D01*
X148549586Y-103024069D01*
X148549813Y-102994151D01*
X148550839Y-102972737D01*
X148553180Y-102956666D01*
X148557355Y-102942777D01*
X148563879Y-102927911D01*
X148566046Y-102923451D01*
X148594900Y-102877557D01*
X148632456Y-102838596D01*
X148677093Y-102808192D01*
X148684657Y-102804294D01*
X148733497Y-102786154D01*
X148782891Y-102778862D01*
X148831542Y-102781747D01*
G37*
G36*
X148102328Y-102781747D02*
G01*
X148148939Y-102794137D01*
X148192213Y-102815360D01*
X148230854Y-102844745D01*
X148263564Y-102881621D01*
X148289047Y-102925314D01*
X148306005Y-102975155D01*
X148308511Y-102987133D01*
X148311779Y-103035554D01*
X148304426Y-103084541D01*
X148287153Y-103131841D01*
X148260662Y-103175203D01*
X148243694Y-103195218D01*
X148203121Y-103230037D01*
X148157280Y-103255063D01*
X148107721Y-103269851D01*
X148055992Y-103273956D01*
X148003644Y-103266934D01*
X147998300Y-103265566D01*
X147949793Y-103246698D01*
X147906711Y-103217904D01*
X147870094Y-103180075D01*
X147840979Y-103134097D01*
X147838516Y-103129076D01*
X147830592Y-103111753D01*
X147825384Y-103097184D01*
X147822326Y-103082094D01*
X147820852Y-103063206D01*
X147820431Y-103039222D01*
X147934582Y-103039222D01*
X147943291Y-103074443D01*
X147962728Y-103106502D01*
X147980521Y-103124569D01*
X148013072Y-103145449D01*
X148048317Y-103155149D01*
X148085306Y-103153574D01*
X148123088Y-103140627D01*
X148125815Y-103139253D01*
X148144806Y-103126252D01*
X148163229Y-103108631D01*
X148169568Y-103100792D01*
X148178702Y-103087242D01*
X148184167Y-103075311D01*
X148186895Y-103061240D01*
X148187819Y-103041271D01*
X148187895Y-103026914D01*
X148187520Y-103002056D01*
X148185791Y-102985061D01*
X148181808Y-102972133D01*
X148174669Y-102959478D01*
X148170358Y-102953108D01*
X148145964Y-102927486D01*
X148120772Y-102911304D01*
X148100043Y-102901697D01*
X148082966Y-102897355D01*
X148063510Y-102897034D01*
X148054635Y-102897674D01*
X148015876Y-102905990D01*
X147983897Y-102923776D01*
X147958814Y-102950955D01*
X147950429Y-102965030D01*
X147936871Y-103002273D01*
X147934582Y-103039222D01*
X147820431Y-103039222D01*
X147820396Y-103037246D01*
X147820371Y-103024069D01*
X147820598Y-102994151D01*
X147821624Y-102972737D01*
X147823966Y-102956666D01*
X147828140Y-102942777D01*
X147834664Y-102927911D01*
X147836831Y-102923451D01*
X147865686Y-102877557D01*
X147903241Y-102838596D01*
X147947879Y-102808192D01*
X147955442Y-102804294D01*
X148004283Y-102786154D01*
X148053677Y-102778862D01*
X148102328Y-102781747D01*
G37*
G36*
X150729316Y-102318426D02*
G01*
X150747547Y-102333694D01*
X150754892Y-102345604D01*
X150757598Y-102352571D01*
X150759701Y-102361612D01*
X150761251Y-102374064D01*
X150762298Y-102391260D01*
X150762891Y-102414536D01*
X150763082Y-102445225D01*
X150762919Y-102484662D01*
X150762452Y-102534181D01*
X150762336Y-102544601D01*
X150761745Y-102595017D01*
X150761159Y-102635299D01*
X150760454Y-102666980D01*
X150759505Y-102691593D01*
X150758187Y-102710670D01*
X150756375Y-102725746D01*
X150753946Y-102738352D01*
X150750775Y-102750021D01*
X150746737Y-102762287D01*
X150744019Y-102770080D01*
X150718343Y-102827260D01*
X150683966Y-102878787D01*
X150642162Y-102923458D01*
X150594204Y-102960071D01*
X150541363Y-102987423D01*
X150499505Y-103001084D01*
X150471795Y-103007953D01*
X150471795Y-103289683D01*
X150471795Y-103571413D01*
X150495657Y-103575444D01*
X150535495Y-103587070D01*
X150577160Y-103607851D01*
X150618439Y-103635999D01*
X150657115Y-103669725D01*
X150690975Y-103707240D01*
X150717802Y-103746755D01*
X150725156Y-103760799D01*
X150747591Y-103819572D01*
X150759141Y-103878361D01*
X150760522Y-103936251D01*
X150752452Y-103992325D01*
X150735647Y-104045666D01*
X150710825Y-104095357D01*
X150678701Y-104140483D01*
X150639994Y-104180125D01*
X150595420Y-104213368D01*
X150545696Y-104239294D01*
X150491540Y-104256988D01*
X150433667Y-104265532D01*
X150372796Y-104264010D01*
X150336191Y-104258110D01*
X150292665Y-104244686D01*
X150247782Y-104223462D01*
X150204617Y-104196421D01*
X150166242Y-104165544D01*
X150135729Y-104132816D01*
X150130070Y-104125125D01*
X150118855Y-104109024D01*
X149917592Y-104201444D01*
X149716329Y-104293864D01*
X149713105Y-104529649D01*
X149712242Y-104589547D01*
X149711395Y-104639140D01*
X149710489Y-104679791D01*
X149709451Y-104712860D01*
X149708206Y-104739710D01*
X149706679Y-104761703D01*
X149704797Y-104780202D01*
X149702484Y-104796567D01*
X149699667Y-104812162D01*
X149696971Y-104825134D01*
X149671353Y-104917264D01*
X149635826Y-105003880D01*
X149590955Y-105084382D01*
X149537303Y-105158168D01*
X149475435Y-105224636D01*
X149405918Y-105283185D01*
X149329314Y-105333214D01*
X149246188Y-105374121D01*
X149157107Y-105405305D01*
X149150459Y-105407164D01*
X149103789Y-105420000D01*
X149103789Y-105571082D01*
X149103789Y-105722163D01*
X149372140Y-105725270D01*
X149435199Y-105726017D01*
X149487741Y-105726706D01*
X149530917Y-105727401D01*
X149565877Y-105728163D01*
X149593771Y-105729055D01*
X149615750Y-105730138D01*
X149632963Y-105731475D01*
X149646562Y-105733128D01*
X149657695Y-105735160D01*
X149667515Y-105737631D01*
X149677170Y-105740606D01*
X149681327Y-105741977D01*
X149751689Y-105771108D01*
X149814449Y-105808919D01*
X149869218Y-105855009D01*
X149915609Y-105908976D01*
X149953236Y-105970418D01*
X149981711Y-106038932D01*
X149988469Y-106061013D01*
X149997295Y-106105113D01*
X150001483Y-106155535D01*
X150001027Y-106207890D01*
X149995920Y-106257790D01*
X149988823Y-106291741D01*
X149964489Y-106359990D01*
X149930511Y-106422361D01*
X149887744Y-106478061D01*
X149837045Y-106526299D01*
X149779269Y-106566284D01*
X149715273Y-106597225D01*
X149645911Y-106618330D01*
X149632685Y-106621069D01*
X149621152Y-106622154D01*
X149598671Y-106623167D01*
X149565929Y-106624107D01*
X149523614Y-106624975D01*
X149472413Y-106625771D01*
X149413014Y-106626496D01*
X149346105Y-106627151D01*
X149272373Y-106627735D01*
X149192506Y-106628249D01*
X149107192Y-106628694D01*
X149017117Y-106629069D01*
X148922970Y-106629376D01*
X148825439Y-106629614D01*
X148725210Y-106629785D01*
X148622972Y-106629888D01*
X148519412Y-106629923D01*
X148415218Y-106629892D01*
X148311076Y-106629795D01*
X148207676Y-106629631D01*
X148105705Y-106629402D01*
X148005849Y-106629108D01*
X147908797Y-106628749D01*
X147815237Y-106628326D01*
X147725855Y-106627839D01*
X147641340Y-106627288D01*
X147562380Y-106626674D01*
X147489661Y-106625998D01*
X147423871Y-106625258D01*
X147365698Y-106624457D01*
X147315830Y-106623595D01*
X147274954Y-106622671D01*
X147243757Y-106621687D01*
X147222928Y-106620642D01*
X147213665Y-106619661D01*
X147150558Y-106601808D01*
X147093183Y-106575843D01*
X147039249Y-106540536D01*
X146993580Y-106501488D01*
X146944733Y-106447782D01*
X146906005Y-106388480D01*
X146876889Y-106322802D01*
X146876342Y-106321250D01*
X146868578Y-106297683D01*
X146863247Y-106276947D01*
X146859778Y-106255457D01*
X146857599Y-106229627D01*
X146856139Y-106195872D01*
X146856083Y-106194159D01*
X146855325Y-106159951D01*
X146971976Y-106159951D01*
X146974641Y-106220030D01*
X146987852Y-106278498D01*
X147011140Y-106333693D01*
X147044037Y-106383950D01*
X147068004Y-106410855D01*
X147115008Y-106450684D01*
X147166695Y-106480226D01*
X147224302Y-106500114D01*
X147254938Y-106506505D01*
X147263573Y-106506986D01*
X147283305Y-106507445D01*
X147313561Y-106507881D01*
X147353770Y-106508293D01*
X147403362Y-106508677D01*
X147461765Y-106509032D01*
X147528407Y-106509357D01*
X147602717Y-106509649D01*
X147684125Y-106509906D01*
X147772058Y-106510126D01*
X147865946Y-106510308D01*
X147965217Y-106510449D01*
X148069299Y-106510548D01*
X148177622Y-106510602D01*
X148289614Y-106510610D01*
X148404704Y-106510570D01*
X148447496Y-106510543D01*
X148584691Y-106510442D01*
X148710709Y-106510340D01*
X148826039Y-106510231D01*
X148931169Y-106510112D01*
X149026590Y-106509977D01*
X149112791Y-106509821D01*
X149190261Y-106509641D01*
X149259490Y-106509430D01*
X149320967Y-106509185D01*
X149375183Y-106508901D01*
X149422625Y-106508572D01*
X149463785Y-106508194D01*
X149499151Y-106507763D01*
X149529212Y-106507274D01*
X149554459Y-106506721D01*
X149575381Y-106506101D01*
X149592467Y-106505408D01*
X149606206Y-106504637D01*
X149617089Y-106503785D01*
X149625604Y-106502846D01*
X149632242Y-106501815D01*
X149637491Y-106500687D01*
X149641841Y-106499459D01*
X149643408Y-106498949D01*
X149700443Y-106474776D01*
X149750810Y-106442219D01*
X149786798Y-106410389D01*
X149826362Y-106364298D01*
X149855068Y-106315007D01*
X149873394Y-106261356D01*
X149881817Y-106202185D01*
X149882521Y-106178035D01*
X149878487Y-106118488D01*
X149865689Y-106065238D01*
X149843336Y-106016384D01*
X149810636Y-105970025D01*
X149783613Y-105940486D01*
X149743287Y-105904551D01*
X149702379Y-105878195D01*
X149657704Y-105859627D01*
X149624204Y-105850678D01*
X149618407Y-105849583D01*
X149611056Y-105848580D01*
X149601667Y-105847665D01*
X149589757Y-105846837D01*
X149574839Y-105846091D01*
X149556430Y-105845425D01*
X149534046Y-105844836D01*
X149507201Y-105844320D01*
X149475412Y-105843875D01*
X149438195Y-105843498D01*
X149395063Y-105843186D01*
X149345534Y-105842935D01*
X149289122Y-105842743D01*
X149225344Y-105842606D01*
X149153715Y-105842522D01*
X149073750Y-105842488D01*
X148984964Y-105842500D01*
X148886875Y-105842556D01*
X148778996Y-105842653D01*
X148660844Y-105842787D01*
X148531934Y-105842956D01*
X148409577Y-105843130D01*
X148271476Y-105843337D01*
X148144560Y-105843541D01*
X148028345Y-105843745D01*
X147922350Y-105843954D01*
X147826090Y-105844174D01*
X147739084Y-105844408D01*
X147660849Y-105844662D01*
X147590901Y-105844940D01*
X147528757Y-105845247D01*
X147473936Y-105845587D01*
X147425954Y-105845966D01*
X147384329Y-105846388D01*
X147348577Y-105846857D01*
X147318215Y-105847378D01*
X147292762Y-105847957D01*
X147271733Y-105848597D01*
X147254647Y-105849303D01*
X147241020Y-105850080D01*
X147230369Y-105850933D01*
X147222212Y-105851867D01*
X147216067Y-105852885D01*
X147211449Y-105853993D01*
X147209018Y-105854771D01*
X147149692Y-105881407D01*
X147097490Y-105916329D01*
X147053213Y-105958676D01*
X147017664Y-106007587D01*
X146991647Y-106062202D01*
X146980327Y-106099927D01*
X146971976Y-106159951D01*
X146855325Y-106159951D01*
X146855302Y-106158905D01*
X146855785Y-106131661D01*
X146857813Y-106108811D01*
X146861671Y-106086739D01*
X146865881Y-106068734D01*
X146888658Y-106000916D01*
X146921227Y-105938353D01*
X146962639Y-105881987D01*
X147011949Y-105832760D01*
X147068210Y-105791614D01*
X147130476Y-105759492D01*
X147197799Y-105737336D01*
X147199080Y-105737027D01*
X147211858Y-105734135D01*
X147224587Y-105731753D01*
X147238513Y-105729830D01*
X147254878Y-105728318D01*
X147274928Y-105727168D01*
X147299906Y-105726331D01*
X147331057Y-105725758D01*
X147369625Y-105725399D01*
X147416854Y-105725206D01*
X147467222Y-105725139D01*
X147875792Y-105725139D01*
X148428536Y-105723651D01*
X148981281Y-105722163D01*
X148982841Y-105577778D01*
X148984401Y-105433394D01*
X148430096Y-105433394D01*
X147875792Y-105433394D01*
X147875792Y-105579266D01*
X147875792Y-105725139D01*
X147467222Y-105725139D01*
X147473988Y-105725130D01*
X147500975Y-105725120D01*
X147753284Y-105725080D01*
X147753284Y-105579266D01*
X147753284Y-105570486D01*
X147753251Y-105524053D01*
X147753092Y-105487981D01*
X147752708Y-105460966D01*
X147752005Y-105441700D01*
X147750887Y-105428878D01*
X147749258Y-105421194D01*
X147747023Y-105417343D01*
X147744085Y-105416018D01*
X147741951Y-105415893D01*
X147727663Y-105413647D01*
X147705219Y-105407508D01*
X147677103Y-105398373D01*
X147645797Y-105387140D01*
X147613784Y-105374705D01*
X147583547Y-105361966D01*
X147557570Y-105349820D01*
X147553810Y-105347907D01*
X147473279Y-105299918D01*
X147400372Y-105243248D01*
X147335434Y-105178331D01*
X147278810Y-105105605D01*
X147230843Y-105025505D01*
X147191879Y-104938467D01*
X147165277Y-104856352D01*
X147161620Y-104842596D01*
X147158589Y-104829987D01*
X147156107Y-104817269D01*
X147154100Y-104803186D01*
X147152493Y-104786479D01*
X147151212Y-104765893D01*
X147150181Y-104740171D01*
X147149325Y-104708055D01*
X147148570Y-104668290D01*
X147147841Y-104619619D01*
X147147063Y-104560784D01*
X147146898Y-104547936D01*
X147145301Y-104423382D01*
X147262410Y-104423382D01*
X147262542Y-104476078D01*
X147263042Y-104528042D01*
X147263911Y-104577726D01*
X147265147Y-104623581D01*
X147266749Y-104664058D01*
X147268717Y-104697607D01*
X147271048Y-104722680D01*
X147272275Y-104731125D01*
X147293200Y-104820266D01*
X147323939Y-104903203D01*
X147364704Y-104980365D01*
X147415709Y-105052183D01*
X147454025Y-105095749D01*
X147520757Y-105157668D01*
X147593702Y-105209811D01*
X147672315Y-105251916D01*
X147756052Y-105283717D01*
X147844368Y-105304952D01*
X147902043Y-105312779D01*
X147911223Y-105313100D01*
X147931203Y-105313387D01*
X147961116Y-105313636D01*
X148000094Y-105313846D01*
X148047269Y-105314014D01*
X148101775Y-105314140D01*
X148162744Y-105314221D01*
X148229309Y-105314254D01*
X148300601Y-105314239D01*
X148375755Y-105314173D01*
X148453902Y-105314053D01*
X148456246Y-105314049D01*
X148548131Y-105313860D01*
X148629101Y-105313650D01*
X148699909Y-105313405D01*
X148761308Y-105313109D01*
X148814052Y-105312750D01*
X148858893Y-105312311D01*
X148896584Y-105311781D01*
X148927878Y-105311144D01*
X148953527Y-105310386D01*
X148974286Y-105309493D01*
X148990905Y-105308451D01*
X149004140Y-105307245D01*
X149014742Y-105305862D01*
X149023464Y-105304287D01*
X149027950Y-105303282D01*
X149114675Y-105278569D01*
X149192526Y-105247771D01*
X149263047Y-105210068D01*
X149327778Y-105164637D01*
X149387193Y-105111715D01*
X149444700Y-105046719D01*
X149494047Y-104974258D01*
X149534418Y-104895936D01*
X149564995Y-104813355D01*
X149584961Y-104728120D01*
X149586006Y-104721680D01*
X149588073Y-104702483D01*
X149589846Y-104674098D01*
X149591323Y-104638062D01*
X149592503Y-104595908D01*
X149593384Y-104549172D01*
X149593965Y-104499389D01*
X149594246Y-104448093D01*
X149594224Y-104396821D01*
X149593899Y-104347106D01*
X149593269Y-104300485D01*
X149592333Y-104258491D01*
X149591090Y-104222660D01*
X149589539Y-104194527D01*
X149587678Y-104175627D01*
X149586450Y-104169476D01*
X149572383Y-104137370D01*
X149550942Y-104105219D01*
X149525425Y-104077690D01*
X149516137Y-104070007D01*
X149510376Y-104065444D01*
X149505306Y-104061271D01*
X149500408Y-104057472D01*
X149495162Y-104054030D01*
X149489047Y-104050929D01*
X149481544Y-104048151D01*
X149472133Y-104045681D01*
X149460294Y-104043502D01*
X149445507Y-104041596D01*
X149427252Y-104039947D01*
X149405010Y-104038538D01*
X149378260Y-104037354D01*
X149346482Y-104036376D01*
X149309157Y-104035589D01*
X149265765Y-104034976D01*
X149215785Y-104034520D01*
X149158699Y-104034204D01*
X149093985Y-104034011D01*
X149021124Y-104033926D01*
X148939597Y-104033931D01*
X148848883Y-104034009D01*
X148748462Y-104034145D01*
X148637815Y-104034321D01*
X148516421Y-104034520D01*
X148415098Y-104034679D01*
X147400344Y-104036219D01*
X147362425Y-104057096D01*
X147325002Y-104083491D01*
X147295431Y-104116475D01*
X147275298Y-104154169D01*
X147271910Y-104164161D01*
X147269430Y-104178601D01*
X147267325Y-104203153D01*
X147265596Y-104236269D01*
X147264241Y-104276399D01*
X147263259Y-104321993D01*
X147262649Y-104371504D01*
X147262410Y-104423382D01*
X147145301Y-104423382D01*
X147143660Y-104295437D01*
X146939842Y-104202056D01*
X146887673Y-104178205D01*
X146845086Y-104158887D01*
X146811087Y-104143709D01*
X146784682Y-104132277D01*
X146764878Y-104124195D01*
X146750680Y-104119072D01*
X146741094Y-104116512D01*
X146735127Y-104116122D01*
X146731785Y-104117508D01*
X146730579Y-104119116D01*
X146718899Y-104135374D01*
X146699818Y-104155398D01*
X146675947Y-104176960D01*
X146649899Y-104197837D01*
X146624284Y-104215803D01*
X146602531Y-104228243D01*
X146541326Y-104252284D01*
X146481220Y-104264791D01*
X146421552Y-104265764D01*
X146361663Y-104255205D01*
X146300892Y-104233112D01*
X146290857Y-104228418D01*
X146236202Y-104195781D01*
X146189153Y-104154474D01*
X146150282Y-104105135D01*
X146120162Y-104048401D01*
X146112902Y-104029989D01*
X146104406Y-103997623D01*
X146099042Y-103958068D01*
X146097895Y-103934488D01*
X146214515Y-103934488D01*
X146222680Y-103980050D01*
X146239516Y-104023160D01*
X146264717Y-104062227D01*
X146297978Y-104095664D01*
X146338994Y-104121881D01*
X146344769Y-104124625D01*
X146390131Y-104141386D01*
X146432905Y-104148294D01*
X146476090Y-104145742D01*
X146488538Y-104143412D01*
X146536832Y-104127400D01*
X146580716Y-104101523D01*
X146618350Y-104067237D01*
X146647893Y-104025999D01*
X146655494Y-104011239D01*
X146662576Y-103994930D01*
X146667142Y-103980118D01*
X146669728Y-103963454D01*
X146670871Y-103941589D01*
X146671109Y-103913711D01*
X146670867Y-103884639D01*
X146669787Y-103864013D01*
X146667306Y-103848611D01*
X146662859Y-103835214D01*
X146655880Y-103820603D01*
X146654238Y-103817454D01*
X146635989Y-103785554D01*
X146618115Y-103761438D01*
X146597742Y-103741683D01*
X146578421Y-103727207D01*
X146532310Y-103702015D01*
X146484096Y-103687753D01*
X146435198Y-103684272D01*
X146387034Y-103691421D01*
X146341022Y-103709049D01*
X146298580Y-103737006D01*
X146274656Y-103759486D01*
X146245090Y-103798971D01*
X146225414Y-103842359D01*
X146215324Y-103888061D01*
X146214515Y-103934488D01*
X146097895Y-103934488D01*
X146096968Y-103915418D01*
X146098339Y-103873765D01*
X146103314Y-103837202D01*
X146105194Y-103829122D01*
X146126322Y-103770538D01*
X146158096Y-103716279D01*
X146198507Y-103668695D01*
X146236214Y-103635038D01*
X146274838Y-103609510D01*
X146318617Y-103589553D01*
X146344137Y-103580745D01*
X146385277Y-103567701D01*
X146385277Y-103289075D01*
X146385277Y-103010450D01*
X146347358Y-102997931D01*
X146285010Y-102971869D01*
X146230647Y-102937658D01*
X146184665Y-102895688D01*
X146147463Y-102846346D01*
X146119439Y-102790024D01*
X146111281Y-102766877D01*
X146107196Y-102753648D01*
X146103944Y-102741652D01*
X146101429Y-102729393D01*
X146099556Y-102715373D01*
X146098231Y-102698096D01*
X146097359Y-102676063D01*
X146096845Y-102647778D01*
X146096596Y-102611743D01*
X146096515Y-102566461D01*
X146096508Y-102533287D01*
X146096508Y-102346460D01*
X146113561Y-102329408D01*
X146134243Y-102315888D01*
X146157000Y-102312339D01*
X146178903Y-102318268D01*
X146197026Y-102333182D01*
X146204151Y-102344673D01*
X146206878Y-102352171D01*
X146209016Y-102362737D01*
X146210630Y-102377717D01*
X146211787Y-102398456D01*
X146212552Y-102426301D01*
X146212990Y-102462599D01*
X146213169Y-102508694D01*
X146213182Y-102529484D01*
X146213331Y-102584221D01*
X146213918Y-102628813D01*
X146215156Y-102664780D01*
X146217258Y-102693641D01*
X146220437Y-102716917D01*
X146224907Y-102736128D01*
X146230879Y-102752795D01*
X146238567Y-102768436D01*
X146248183Y-102784572D01*
X146249110Y-102786037D01*
X146279660Y-102824052D01*
X146317406Y-102854699D01*
X146360346Y-102877089D01*
X146406478Y-102890333D01*
X146453800Y-102893540D01*
X146483123Y-102890046D01*
X146533563Y-102874541D01*
X146577998Y-102849635D01*
X146615417Y-102816400D01*
X146644814Y-102775907D01*
X146665178Y-102729230D01*
X146674472Y-102686759D01*
X146675871Y-102670063D01*
X146677135Y-102643813D01*
X146678208Y-102610124D01*
X146679029Y-102571109D01*
X146679543Y-102528882D01*
X146679689Y-102497127D01*
X146679880Y-102346460D01*
X146696932Y-102329408D01*
X146717721Y-102315780D01*
X146740481Y-102312287D01*
X146762389Y-102318426D01*
X146780620Y-102333694D01*
X146787965Y-102345604D01*
X146790671Y-102352571D01*
X146792774Y-102361612D01*
X146794324Y-102374064D01*
X146795371Y-102391260D01*
X146795964Y-102414536D01*
X146796155Y-102445225D01*
X146795992Y-102484662D01*
X146795525Y-102534181D01*
X146795409Y-102544601D01*
X146794818Y-102595017D01*
X146794233Y-102635299D01*
X146793527Y-102666980D01*
X146792578Y-102691593D01*
X146791260Y-102710670D01*
X146789448Y-102725746D01*
X146787019Y-102738352D01*
X146783848Y-102750021D01*
X146779810Y-102762287D01*
X146777092Y-102770080D01*
X146751416Y-102827260D01*
X146717039Y-102878787D01*
X146675235Y-102923458D01*
X146627277Y-102960071D01*
X146574436Y-102987423D01*
X146532578Y-103001084D01*
X146504868Y-103007953D01*
X146504868Y-103289683D01*
X146504868Y-103571413D01*
X146528730Y-103575444D01*
X146545003Y-103579941D01*
X146567502Y-103588394D01*
X146592177Y-103599235D01*
X146600193Y-103603113D01*
X146647112Y-103631872D01*
X146690585Y-103668948D01*
X146727952Y-103711681D01*
X146756550Y-103757407D01*
X146758589Y-103761549D01*
X146781407Y-103821357D01*
X146793167Y-103882357D01*
X146793661Y-103943282D01*
X146791571Y-103961427D01*
X146788510Y-103984037D01*
X146786516Y-104001686D01*
X146785879Y-104011645D01*
X146786076Y-104012870D01*
X146792212Y-104016064D01*
X146807415Y-104023290D01*
X146830157Y-104033858D01*
X146858912Y-104047078D01*
X146892152Y-104062260D01*
X146928349Y-104078713D01*
X146965977Y-104095747D01*
X147003507Y-104112672D01*
X147039413Y-104128798D01*
X147072168Y-104143434D01*
X147100243Y-104155890D01*
X147122112Y-104165476D01*
X147136248Y-104171502D01*
X147141078Y-104173311D01*
X147144538Y-104168139D01*
X147146446Y-104155235D01*
X147146577Y-104150242D01*
X147150020Y-104124150D01*
X147159340Y-104092972D01*
X147173026Y-104060653D01*
X147189567Y-104031136D01*
X147195545Y-104022478D01*
X147221264Y-103992214D01*
X147250903Y-103967427D01*
X147287781Y-103945498D01*
X147302062Y-103938463D01*
X147342007Y-103919544D01*
X147692768Y-103916761D01*
X148196646Y-103916761D01*
X148428536Y-103915236D01*
X148660426Y-103913711D01*
X148661987Y-103769326D01*
X148663547Y-103624942D01*
X148430096Y-103624942D01*
X148196646Y-103624942D01*
X148196646Y-103770852D01*
X148196646Y-103916761D01*
X147692768Y-103916761D01*
X147709531Y-103916628D01*
X148077055Y-103913711D01*
X148078599Y-103770852D01*
X148078615Y-103769326D01*
X148080175Y-103624942D01*
X147926539Y-103624942D01*
X147876696Y-103624805D01*
X147836999Y-103624344D01*
X147805926Y-103623484D01*
X147781959Y-103622147D01*
X147763577Y-103620259D01*
X147749260Y-103617742D01*
X147741216Y-103615676D01*
X147695210Y-103596381D01*
X147655132Y-103567747D01*
X147622434Y-103531116D01*
X147598565Y-103487827D01*
X147596053Y-103481425D01*
X147593753Y-103475067D01*
X147591764Y-103468594D01*
X147590068Y-103461163D01*
X147588645Y-103451933D01*
X147587476Y-103440061D01*
X147586542Y-103424703D01*
X147585823Y-103405019D01*
X147585300Y-103380164D01*
X147584954Y-103349298D01*
X147584766Y-103311577D01*
X147584716Y-103266158D01*
X147584785Y-103212200D01*
X147584954Y-103148860D01*
X147585204Y-103075295D01*
X147585387Y-103025174D01*
X147700780Y-103025174D01*
X147700781Y-103105644D01*
X147700823Y-103175287D01*
X147700963Y-103234943D01*
X147701257Y-103285452D01*
X147701763Y-103327655D01*
X147702538Y-103362391D01*
X147703640Y-103390501D01*
X147705124Y-103412824D01*
X147707049Y-103430202D01*
X147709471Y-103443474D01*
X147712447Y-103453481D01*
X147716035Y-103461063D01*
X147720292Y-103467059D01*
X147725274Y-103472311D01*
X147731039Y-103477658D01*
X147731561Y-103478138D01*
X147736413Y-103482679D01*
X147741001Y-103486733D01*
X147745981Y-103490327D01*
X147752004Y-103493487D01*
X147759726Y-103496238D01*
X147769800Y-103498608D01*
X147782879Y-103500622D01*
X147799619Y-103502307D01*
X147820672Y-103503690D01*
X147846693Y-103504796D01*
X147878335Y-103505652D01*
X147916253Y-103506285D01*
X147961099Y-103506719D01*
X148013529Y-103506983D01*
X148074196Y-103507102D01*
X148143753Y-103507103D01*
X148222855Y-103507011D01*
X148312155Y-103506854D01*
X148412308Y-103506656D01*
X148438745Y-103506605D01*
X149086288Y-103505351D01*
X149106928Y-103492513D01*
X149122723Y-103479234D01*
X149137697Y-103461252D01*
X149141930Y-103454594D01*
X149156292Y-103429512D01*
X149157989Y-103048554D01*
X149158266Y-102964462D01*
X149158313Y-102888814D01*
X149158134Y-102822056D01*
X149157736Y-102764636D01*
X149157121Y-102717000D01*
X149156295Y-102679596D01*
X149155262Y-102652869D01*
X149154028Y-102637268D01*
X149153742Y-102635441D01*
X149143386Y-102601201D01*
X149126225Y-102575832D01*
X149101469Y-102558206D01*
X149098532Y-102556820D01*
X149094417Y-102555128D01*
X149089503Y-102553621D01*
X149083128Y-102552288D01*
X149074631Y-102551118D01*
X149063349Y-102550101D01*
X149048619Y-102549225D01*
X149029781Y-102548480D01*
X149006171Y-102547855D01*
X148977127Y-102547339D01*
X148941987Y-102546922D01*
X148900089Y-102546592D01*
X148850771Y-102546338D01*
X148793371Y-102546151D01*
X148727226Y-102546018D01*
X148651674Y-102545930D01*
X148566053Y-102545875D01*
X148469700Y-102545842D01*
X148426537Y-102545832D01*
X147778453Y-102545704D01*
X147753050Y-102559138D01*
X147727876Y-102578303D01*
X147714214Y-102597975D01*
X147700780Y-102623378D01*
X147700780Y-103025174D01*
X147585387Y-103025174D01*
X147585420Y-103016174D01*
X147586876Y-102623378D01*
X147587023Y-102583623D01*
X147606801Y-102547150D01*
X147636257Y-102504494D01*
X147673583Y-102469973D01*
X147711426Y-102447467D01*
X147744533Y-102431947D01*
X148429995Y-102431947D01*
X149115456Y-102431947D01*
X149149454Y-102449158D01*
X149182783Y-102470878D01*
X149214377Y-102500191D01*
X149241021Y-102533639D01*
X149259346Y-102567379D01*
X149272967Y-102601125D01*
X149272967Y-103026986D01*
X149272967Y-103452847D01*
X149259429Y-103486372D01*
X149238223Y-103524931D01*
X149208059Y-103560334D01*
X149171642Y-103589731D01*
X149148689Y-103602925D01*
X149109914Y-103622025D01*
X148944966Y-103623889D01*
X148780018Y-103625754D01*
X148780018Y-103771191D01*
X148780018Y-103916628D01*
X149135354Y-103916628D01*
X149209023Y-103916646D01*
X149271976Y-103916718D01*
X149325167Y-103916871D01*
X149369548Y-103917132D01*
X149406072Y-103917528D01*
X149435690Y-103918086D01*
X149459356Y-103918832D01*
X149478021Y-103919795D01*
X149492639Y-103921000D01*
X149504161Y-103922474D01*
X149513540Y-103924245D01*
X149521729Y-103926339D01*
X149526203Y-103927680D01*
X149575910Y-103949051D01*
X149619573Y-103979737D01*
X149656109Y-104018493D01*
X149684440Y-104064075D01*
X149703485Y-104115241D01*
X149708337Y-104137423D01*
X149712167Y-104156032D01*
X149715882Y-104168959D01*
X149718411Y-104173190D01*
X149724422Y-104170804D01*
X149739752Y-104164088D01*
X149763133Y-104153615D01*
X149793298Y-104139959D01*
X149828977Y-104123693D01*
X149868903Y-104105390D01*
X149897174Y-104092376D01*
X149949909Y-104067858D01*
X149992388Y-104047647D01*
X150025094Y-104031491D01*
X150048513Y-104019142D01*
X150063131Y-104010350D01*
X150069430Y-104004865D01*
X150069727Y-104003533D01*
X150068510Y-103994624D01*
X150067121Y-103976822D01*
X150065749Y-103952895D01*
X150064936Y-103934488D01*
X150181442Y-103934488D01*
X150189607Y-103980050D01*
X150206443Y-104023160D01*
X150231644Y-104062227D01*
X150264905Y-104095664D01*
X150305921Y-104121881D01*
X150311696Y-104124625D01*
X150357058Y-104141386D01*
X150399832Y-104148294D01*
X150443017Y-104145742D01*
X150455465Y-104143412D01*
X150503759Y-104127400D01*
X150547643Y-104101523D01*
X150585277Y-104067237D01*
X150614820Y-104025999D01*
X150622421Y-104011239D01*
X150629503Y-103994930D01*
X150634069Y-103980118D01*
X150636655Y-103963454D01*
X150637798Y-103941589D01*
X150638035Y-103913711D01*
X150637794Y-103884639D01*
X150636714Y-103864013D01*
X150634233Y-103848611D01*
X150629785Y-103835214D01*
X150622807Y-103820603D01*
X150621165Y-103817454D01*
X150602916Y-103785554D01*
X150585042Y-103761438D01*
X150564669Y-103741683D01*
X150545348Y-103727207D01*
X150499237Y-103702015D01*
X150451023Y-103687753D01*
X150402125Y-103684272D01*
X150353961Y-103691421D01*
X150307949Y-103709049D01*
X150265507Y-103737006D01*
X150241583Y-103759486D01*
X150212017Y-103798971D01*
X150192341Y-103842359D01*
X150182251Y-103888061D01*
X150181442Y-103934488D01*
X150064936Y-103934488D01*
X150064791Y-103931212D01*
X150066641Y-103867449D01*
X150077749Y-103810055D01*
X150098638Y-103757661D01*
X150129834Y-103708898D01*
X150165434Y-103668695D01*
X150203141Y-103635038D01*
X150241765Y-103609510D01*
X150285544Y-103589553D01*
X150311064Y-103580745D01*
X150352204Y-103567701D01*
X150352204Y-103289075D01*
X150352204Y-103010450D01*
X150314285Y-102997931D01*
X150251937Y-102971869D01*
X150197574Y-102937658D01*
X150151592Y-102895688D01*
X150114390Y-102846346D01*
X150086366Y-102790024D01*
X150078208Y-102766877D01*
X150074123Y-102753648D01*
X150070871Y-102741652D01*
X150068356Y-102729393D01*
X150066483Y-102715373D01*
X150065158Y-102698096D01*
X150064286Y-102676063D01*
X150063772Y-102647778D01*
X150063523Y-102611743D01*
X150063442Y-102566461D01*
X150063435Y-102533287D01*
X150063435Y-102346460D01*
X150080487Y-102329408D01*
X150101170Y-102315888D01*
X150123926Y-102312339D01*
X150145830Y-102318268D01*
X150163953Y-102333182D01*
X150171078Y-102344673D01*
X150173805Y-102352171D01*
X150175942Y-102362737D01*
X150177557Y-102377717D01*
X150178714Y-102398456D01*
X150179479Y-102426301D01*
X150179917Y-102462599D01*
X150180096Y-102508694D01*
X150180109Y-102529484D01*
X150180258Y-102584221D01*
X150180844Y-102628813D01*
X150182083Y-102664780D01*
X150184185Y-102693641D01*
X150187364Y-102716917D01*
X150191834Y-102736128D01*
X150197806Y-102752795D01*
X150205494Y-102768436D01*
X150215110Y-102784572D01*
X150216037Y-102786037D01*
X150246587Y-102824052D01*
X150284333Y-102854699D01*
X150327273Y-102877089D01*
X150373405Y-102890333D01*
X150420727Y-102893540D01*
X150450050Y-102890046D01*
X150500490Y-102874541D01*
X150544925Y-102849635D01*
X150582344Y-102816400D01*
X150611741Y-102775907D01*
X150632105Y-102729230D01*
X150641399Y-102686759D01*
X150642798Y-102670063D01*
X150644062Y-102643813D01*
X150645135Y-102610124D01*
X150645956Y-102571109D01*
X150646470Y-102528882D01*
X150646616Y-102497127D01*
X150646807Y-102346460D01*
X150663859Y-102329408D01*
X150684648Y-102315780D01*
X150707408Y-102312287D01*
X150729316Y-102318426D01*
G37*
%TD*%
M02*
